<?xml version="1.0" encoding="UTF-8"?>
<svg width="1366px" height="738px" viewBox="0 0 1366 738" version="1.1" xmlns="http://www.w3.org/2000/svg" xmlns:xlink="http://www.w3.org/1999/xlink">
    <!-- Generator: Sketch 51.1 (57501) - http://www.bohemiancoding.com/sketch -->
    <title>Group 400</title>
    <desc>Created with Sketch.</desc>
    <defs>
        <polygon id="path-1" points="0.0130393936 0.994444444 34.7152383 0.994444444 34.7152383 8.9519393 0.0130393936 8.9519393"></polygon>
        <polygon id="path-3" points="0.047511614 0.192052777 53.9405464 0.192052777 53.9405464 227 0.047511614 227"></polygon>
    </defs>
    <g id="Page-1" stroke="none" stroke-width="1" fill="none" fill-rule="evenodd">
        <g id="events" transform="translate(0.000000, -140.000000)">
            <g id="Group-400" transform="translate(-8.000000, 139.000000)">
                <path d="M1039,334.093703 C1039,334.093703 1047.03681,245.479511 1053.46847,227.756894 C1059.89792,210.034277 1104.91068,179.421879 1112.94749,152.032481 C1120.98651,124.643082 1146.93519,100.96827 1178.16883,103.138341 C1209.40246,105.308412 1241.55412,143.976645 1272.09842,153.643427 C1302.64161,163.311315 1333.18701,153.643427 1347.65438,184.255824 C1362.12284,214.867114 1366.94493,367.927992 1366.94493,403.373226 C1366.94493,438.819568 1380.97924,569.230881 1382,587 L1177.00998,461.814572 L1174.51332,335.13113 L1039,334.093703 Z" id="Fill-1" fill="#E9F9FF"></path>
                <path d="M108,109.198739 C108,109.198739 115.422107,119.26359 127.702522,118.994707 C139.982938,118.725824 147,109.60151 147,109.60151 L136.60905,99 L108,109.198739 Z" id="Fill-3" fill="#FFFFFF"></path>
                <path d="M129.319575,82 C129.319575,82 98.4243235,95.6445587 78,117.211549 L79.0019604,118 C79.0019604,118 102.005118,108.888758 127.029853,108.888758 C152.054587,108.888758 171.259564,117.991078 171.259564,117.991078 L172,116.351724 C172,116.351724 150.746962,89.1919705 129.319575,82" id="Fill-5" fill="#FFFFFF"></path>
                <path d="M125.005424,9.30216222 C124.898112,33.8835571 126.395314,58.229199 128.415659,82.6999118 C128.448678,83.0983675 129.031668,83.1016879 128.998649,82.6999118 C126.978304,58.229199 125.481103,33.8835571 125.589446,9.30216222 C125.590478,8.89927926 125.007488,8.89927926 125.005424,9.30216222" id="Fill-7" fill="#DDDDDD"></path>
                <path d="M124.530038,83.0384167 C107.56835,91.9663272 91.2870228,102.243389 78.087137,116.454822 C77.81191,116.750404 78.2522732,117.199374 78.5275002,116.902673 C91.691056,102.729307 107.93275,92.4858344 124.843797,83.5859146 C125.19939,83.3978172 124.88453,82.8514389 124.530038,83.0384167" id="Fill-9" fill="#DDDDDD"></path>
                <path d="M129.222798,82.6200178 C138.416761,84.7211544 146.132121,90.9696254 153.151085,97.0947639 C159.903813,102.986692 166.07456,109.610766 171.402592,116.864958 C171.640225,117.187864 172.180399,116.871685 171.939466,116.544293 C166.269287,108.824802 159.67058,101.793731 152.400782,95.6203804 C145.564443,89.8147851 138.230835,84.0293714 129.38782,82.0089615 C128.998367,81.9192652 128.832244,82.5303214 129.222798,82.6200178" id="Fill-11" fill="#DDDDDD"></path>
                <path d="M78.3778411,117.979291 C107.869256,107.088879 141.194808,106.609706 170.623331,117.970438 C170.99847,118.115407 171.161766,117.510077 170.789937,117.367321 C141.268732,105.97007 107.795331,106.451457 78.2123387,117.376174 C77.8383034,117.513397 77.9993924,118.118727 78.3778411,117.979291" id="Fill-13" fill="#DDDDDD"></path>
                <path d="M89.3920763,106.992938 C108.268065,103.402508 127.546969,102.630061 146.701558,104.681593 C147.101144,104.724562 147.097814,104.159966 146.701558,104.116997 C127.489251,102.05947 108.151519,102.848905 89.2255822,106.448328 C88.8304363,106.523274 88.9980403,107.067884 89.3920763,106.992938" id="Fill-15" fill="#DDDDDD"></path>
                <path d="M110.09237,112.560922 C119.15769,122.053863 134.304975,122.518577 143.89892,113.626279 C144.201467,113.346289 143.757066,112.882737 143.45452,113.162727 C134.114359,121.819183 119.350522,121.32891 110.534554,112.096209 C110.249739,111.79763 109.806447,112.262344 110.09237,112.560922" id="Fill-17" fill="#DDDDDD"></path>
                <path d="M331.29017,9.30307254 C330.447238,53.4328773 329.842991,97.5660125 329.00006,141.696927 C328.992522,142.101024 329.702293,142.101024 329.70983,141.696927 C330.552762,97.5660125 331.158265,53.4328773 331.99994,9.30307254 C332.007478,8.89897582 331.297707,8.89897582 331.29017,9.30307254" id="Fill-19" fill="#DDDDDD"></path>
                <path d="M329.473395,141.105081 C325.236533,146.107816 319.782759,149.897049 314.659449,153.900364 C310.425935,157.209606 305.636439,160.65969 303.040733,165.520456 C302.84759,165.881013 303.393525,166.203262 303.586668,165.841577 C306.509489,160.370118 312.338385,156.496378 317.104436,152.804044 C321.59138,149.326918 326.225692,145.918523 329.919968,141.555777 C330.18233,141.245923 329.73799,140.792973 329.473395,141.105081" id="Fill-21" fill="#DDDDDD"></path>
                <path d="M357.918496,163.446703 C350.170334,154.471293 339.948185,148.896784 330.458031,142.059018 C330.126223,141.819629 329.810109,142.370337 330.138554,142.607478 C339.576022,149.408155 349.7623,154.96693 357.471228,163.89626 C357.73802,164.205331 358.184167,163.75465 357.918496,163.446703" id="Fill-23" fill="#DDDDDD"></path>
                <path d="M303.389141,165.988905 C321.149204,161.417965 339.462574,160.421194 357.606632,163.054091 C358.000587,163.11181 358.171006,162.506866 357.773731,162.449146 C339.516799,159.799599 321.087234,160.786381 303.223149,165.383961 C302.832514,165.48386 302.9974,166.088804 303.389141,165.988905" id="Fill-25" fill="#DDDDDD"></path>
                <path d="M307.389661,159.994707 C319.729761,157.922056 332.172118,156.789997 344.700239,156.591207 C345.09937,156.584929 345.10047,155.992744 344.700239,156.000067 C332.116041,156.198858 319.616508,157.342425 307.22473,159.424492 C306.831096,159.490407 306.998225,160.060621 307.389661,159.994707" id="Fill-27" fill="#DDDDDD"></path>
                <path d="M320.138555,163.643916 C327.14962,168.517302 336.392972,168.033045 342.897147,162.518019 C343.2015,162.259382 342.762487,161.821349 342.460324,162.077785 C336.144453,167.431026 327.23173,167.818431 320.450572,163.106831 C320.122133,162.87791 319.812306,163.417196 320.138555,163.643916" id="Fill-29" fill="#DDDDDD"></path>
                <path d="M231,9.30187668 L231,140.435779 L231,307.896614 L231,369.697294 C231,370.100902 231.565,370.100902 231.565,369.697294 L231.565,238.564498 L231.565,71.1025568 L231.565,9.30187668 C231.565,8.89937444 231,8.89937444 231,9.30187668" id="Fill-31" fill="#DDDDDD"></path>
                <path d="M1178.30117,103.301791 L1178.30117,296.958476 L1178.30117,389.950872 L1178.30117,441.172359 L1178.30117,454.238896 C1178.30117,455.930249 1177.53003,460.203958 1178.45562,461.60347 C1178.61779,461.847777 1179.11864,461.953901 1179.33818,462.148462 C1181.19377,463.788964 1183.87896,464.949697 1185.97946,466.246402 C1190.04917,468.759112 1194.11888,471.270717 1198.18859,473.783428 C1210.29402,481.254126 1222.40055,488.727035 1234.50488,496.198839 C1264.833,514.917592 1295.16112,533.637451 1325.48813,552.356205 C1337.67299,559.876649 1349.85675,567.397093 1362.04051,574.917537 C1366.08374,577.41256 1370.12588,579.907583 1374.16911,582.403712 C1376.20121,583.657303 1378.41754,585.546534 1380.65483,586.406582 C1380.95932,586.523761 1381.25718,586.778017 1381.5385,586.951574 C1381.88049,587.163822 1382.1938,586.622147 1381.85291,586.412109 C1366.71919,577.070973 1351.58437,567.729836 1336.45065,558.3887 C1306.68075,540.013744 1276.91196,521.638789 1247.14206,503.263834 C1225.68368,490.019318 1204.22531,476.774802 1182.76693,463.530287 C1181.84466,462.960975 1179.38783,462.040127 1178.80423,461.083904 C1178.62331,460.788746 1178.91235,459.050963 1178.92448,458.662946 C1179.00281,456.31716 1178.92448,453.950371 1178.92448,451.603479 L1178.92448,437.73659 L1178.92448,412.575216 L1178.92448,317.548773 L1178.92448,129.4625 L1178.92448,103.301791 C1178.92448,102.899403 1178.30117,102.899403 1178.30117,103.301791" id="Fill-33" fill="#DDDDDD"></path>
                <path d="M44.2921975,222.302514 C43.0947489,269.669728 41.3349004,317.06132 42.258038,364.445156 C42.492267,376.536838 42.9193904,388.629628 43.811214,400.699148 C43.8412754,401.099175 44.5502251,401.101391 44.5201636,400.699148 C41.030528,353.469339 42.789124,305.879395 44.0291596,258.605262 C44.3473102,246.503607 44.6942696,234.403061 44.9998946,222.302514 C45.0099151,221.899162 44.302218,221.899162 44.2921975,222.302514" id="Fill-35" fill="#DDDDDD"></path>
                <path d="M48.2921975,223.302513 C47.0947489,270.670725 45.3349004,318.062207 46.258038,365.445933 C46.492267,377.536479 46.9193904,389.630349 47.811214,401.698732 C47.8412754,402.098759 48.5489725,402.102083 48.5201636,401.698732 C45.030528,354.469034 46.7878714,306.8792 48.0291596,259.605177 C48.3473102,247.50355 48.6942696,235.403032 48.9998946,223.302513 C49.0099151,222.899162 48.302218,222.899162 48.2921975,223.302513" id="Fill-37" fill="#DDDDDD"></path>
                <path d="M53.2090192,223.620871 C79.0814745,233.727604 104.537503,244.851265 129.525326,256.965523 C129.885569,257.139947 130.201745,256.604608 129.840401,256.430183 C104.803003,244.291791 79.2985013,233.149481 53.374268,223.023001 C53.0019074,222.876002 52.8388619,223.476065 53.2090192,223.620871" id="Fill-39" fill="#DDDDDD"></path>
                <path d="M134.428,260.385072 C134.42,300.794747 134.007,341.204422 134,381.614097 C134,382.12808 134.566,382.129188 134.566,381.614097 C134.573,341.204422 134.987,300.794747 134.993,260.385072 C134.993,259.872197 134.428,259.871089 134.428,260.385072" id="Fill-41" fill="#DDDDDD"></path>
                <path d="M130.428,260.385072 C130.421,300.794747 130.007,341.204422 130,381.614097 C130,382.12808 130.566,382.129188 130.566,381.614097 C130.574,341.204422 130.987,300.794747 130.993,260.385072 C130.993,259.872197 130.428,259.871089 130.428,260.385072" id="Fill-43" fill="#DDDDDD"></path>
                <path d="M1211.43142,209.303219 C1211.41934,268.800183 1209.94305,328.289382 1207.00052,387.697613 C1206.98039,388.10135 1207.54998,388.100241 1207.5691,387.697613 C1210.51163,328.289382 1211.98994,268.800183 1212,209.303219 C1212,208.899482 1211.43142,208.898372 1211.43142,209.303219" id="Fill-45" fill="#DDDDDD"></path>
                <path d="M1218.35953,198.302286 L1211.00029,388.697298 C1210.98443,389.100901 1211.62574,389.100901 1211.64047,388.697298 L1218.99971,198.302286 C1219.01557,197.898684 1218.37539,197.899793 1218.35953,198.302286" id="Fill-47" fill="#DDDDDD"></path>
                <path d="M1210.38976,203.988976 C1217.97217,202.088238 1225.95803,201.536516 1233.73773,200.968566 C1244.13764,200.208055 1254.56858,199.834831 1264.9962,199.683377 C1275.41494,199.531924 1285.84588,199.602242 1296.25577,200.078238 C1304.01773,200.434153 1312.02798,200.757613 1319.60928,202.546925 C1320.00165,202.639961 1320.16901,202.050375 1319.77554,201.958421 C1312.45249,200.228609 1304.72044,199.877021 1297.2267,199.512452 C1286.49539,198.99102 1275.73859,198.916375 1264.9962,199.072155 C1254.24493,199.227936 1243.48813,199.616305 1232.76679,200.428744 C1225.25975,200.996693 1217.54101,201.563561 1210.2235,203.39939 C1209.83225,203.496753 1209.9974,204.087421 1210.38976,203.988976" id="Fill-49" fill="#DDDDDD"></path>
                <path d="M1209.22232,392.603149 C1244.47066,401.133166 1279.87765,409.679503 1315.60853,415.994326 C1316.00185,416.063959 1316.16931,415.470992 1315.77489,415.40136 C1280.0418,409.085448 1244.63702,400.540199 1209.38758,392.010182 C1208.99867,391.915525 1208.83231,392.50958 1209.22232,392.603149" id="Fill-51" fill="#DDDDDD"></path>
                <path d="M144.777677,380.603169 C109.530337,389.133237 74.1232477,397.678537 38.3911509,403.994486 C37.9989385,404.063031 37.8303752,403.471149 38.2247911,403.401516 C73.9579896,397.085567 109.363977,388.540267 144.612419,380.010199 C145.001326,379.915541 145.167686,380.508511 144.777677,380.603169" id="Fill-53" fill="#DDDDDD"></path>
                <path d="M1274.41656,223.150189 C1261.95875,244.278229 1249.50315,265.406269 1237.04534,286.534309 C1236.84151,286.881377 1237.37918,287.196391 1237.58301,286.849323 C1250.04082,265.721283 1262.49752,244.593243 1274.95423,223.465203 C1275.15916,223.118135 1274.62149,222.804226 1274.41656,223.150189" id="Fill-55" fill="#DDDDDD"></path>
                <path d="M1267.41798,272.153484 C1258.29352,288.613369 1249.16796,305.072153 1240.04129,321.532038 C1239.84755,321.883044 1240.3878,322.19774 1240.58264,321.846733 C1249.70821,305.386849 1258.83377,288.926964 1267.95823,272.46818 C1268.15307,272.116073 1267.61393,271.802478 1267.41798,272.153484" id="Fill-57" fill="#DDDDDD"></path>
                <polygon id="Fill-59" fill="#DDDDDD" points="1178.99668 462 294 458.59431 294.001105 458 1179 461.404636"></polygon>
                <path d="M1063.30297,248.565 L1168.69661,248.565 C1169.10057,248.565 1169.10168,248 1168.69661,248 L1063.30297,248 C1062.89901,248 1062.89901,248.565 1063.30297,248.565" id="Fill-61" fill="#DDDDDD"></path>
                <path d="M1057.30252,254.999988 C1093.43736,254.729158 1129.56111,253.859377 1165.69706,253.589588 C1166.10098,253.586463 1166.10098,252.996887 1165.69706,253.000012 C1129.56111,253.270842 1093.43736,254.139582 1057.30252,254.411453 C1056.89971,254.414578 1056.89861,255.003113 1057.30252,254.999988" id="Fill-63" fill="#DDDDDD"></path>
                <path d="M1.3823565,538.983437 C26.7545381,530.801577 52.123409,522.613116 77.4933834,514.420254 C121.507072,500.206239 165.519657,485.988923 209.513482,471.712198 C224.944704,466.703188 240.38365,461.720582 255.783972,456.618058 C256.1636,456.49264 256.001375,455.890855 255.618436,456.017373 C221.601989,467.288471 187.466357,478.21412 153.371557,489.244284 C111.801173,502.692591 70.2230632,516.118895 28.6427466,529.536397 C19.5007714,532.485916 10.3587962,535.435434 1.21682097,538.383852 C0.836089267,538.505969 0.99831408,539.106654 1.3823565,538.983437" id="Fill-65" fill="#DDDDDD"></path>
                <path d="M1178.21984,363 C1178.21984,363 1188.93237,403.538594 1187.14769,418.685427 C1185.3619,433.831157 1206.79028,454.324321 1209.46786,464.124824 C1212.14544,473.925326 1255,506 1255,506 L1176.8805,461.228895 L1128,461.006131 C1128,461.006131 1151.21307,450.760101 1159.69337,444.745479 C1168.17587,438.73196 1167.72942,422.472411 1170.85345,412.448042 C1173.97859,402.424775 1171.07668,386.833517 1171.97068,379.036785 C1172.86247,371.241156 1178.21984,363 1178.21984,363" id="Fill-67" fill="#F8FDFF" style="mix-blend-mode: multiply;"></path>
                <path d="M1088,204.303312 L1088,246.695855 C1088,247.101382 1088.565,247.101382 1088.565,246.695855 L1088.565,204.303312 C1088.565,203.898896 1088,203.898896 1088,204.303312" id="Fill-69" fill="#DDDDDD"></path>
                <path d="M1087.38924,204.985768 C1092.43515,203.467949 1097.46994,203.258267 1102.60588,204.365059 C1103.00155,204.449647 1103.17049,203.800345 1102.77371,203.714565 C1097.5433,202.588711 1092.35846,202.791246 1087.22252,204.336466 C1086.83241,204.453221 1086.99801,205.103714 1087.38924,204.985768" id="Fill-71" fill="#DDDDDD"></path>
                <path d="M1101.00021,203.304404 C1101.45548,218.101979 1101.91186,232.898439 1102.36936,247.696015 C1102.38052,248.100771 1103.0121,248.101886 1102.99982,247.696015 C1102.54344,232.898439 1102.08705,218.101979 1101.63067,203.304404 C1101.61839,202.899648 1100.98682,202.897418 1101.00021,203.304404" id="Fill-73" fill="#DDDDDD"></path>
                <path d="M1090.58899,223.861442 C1093.09674,220.207933 1096.20265,217.101416 1099.86183,214.586564 C1100.18721,214.363191 1099.87826,213.828186 1099.5496,214.054828 C1095.80387,216.629609 1092.62017,219.81131 1090.05436,223.54981 C1089.82867,223.878876 1090.3644,224.187239 1090.58899,223.861442" id="Fill-75" fill="#DDDDDD"></path>
                <path d="M1089.56244,231.839019 C1092.37148,226.234945 1096.17806,221.430964 1100.89414,217.529652 C1101.20232,217.275492 1100.76958,216.821877 1100.46355,217.073759 C1095.70559,221.011541 1091.87109,225.861112 1089.03844,231.514195 C1088.85482,231.88005 1089.37883,232.206014 1089.56244,231.839019" id="Fill-77" fill="#DDDDDD"></path>
                <path d="M1101.3086,211.826444 C1106.85548,212.260777 1112.31596,211.879015 1117.76736,210.69117 C1118.17428,210.6023 1118.00264,209.920134 1117.59686,210.007752 C1112.1932,211.185583 1106.79978,211.548571 1101.3086,211.119244 C1100.896,211.086701 1100.89827,211.7939 1101.3086,211.826444" id="Fill-79" fill="#DDDDDD"></path>
                <path d="M1116.00172,212.298699 C1117.07218,224.076675 1117.88445,235.877819 1118.43755,247.69882 C1118.45641,248.099289 1119.01746,248.101496 1118.99958,247.69882 C1118.44549,235.877819 1117.63421,224.076675 1116.56277,212.298699 C1116.52702,211.902643 1115.96498,211.89823 1116.00172,212.298699" id="Fill-81" fill="#DDDDDD"></path>
                <path d="M1107.68909,226.358528 C1106.38432,229.088968 1104.95648,232.609854 1107.09878,235.311177 C1108.61157,237.218818 1111.42913,237.745064 1113.03232,235.656257 C1115.4262,232.538681 1113.23162,222.180913 1108.07028,225.731994 C1107.74681,225.955217 1108.05394,226.48362 1108.38177,226.259318 C1112.894,223.152527 1114.31421,232.238894 1112.81885,234.862574 C1111.17863,237.742907 1107.61285,236.072508 1106.80908,233.487649 C1106.09243,231.182089 1107.24581,228.706145 1108.22058,226.666943 C1108.39048,226.313237 1107.85899,226.003744 1107.68909,226.358528" id="Fill-83" fill="#DDDDDD"></path>
                <path d="M1115.00268,200.293494 C1115.76365,206.098103 1116.52335,211.902712 1117.28431,217.707322 C1117.33479,218.095382 1118.04906,218.09973 1117.99732,217.707322 C1117.23762,211.902712 1116.47666,206.098103 1115.71569,200.293494 C1115.66395,199.904346 1114.95094,199.899998 1115.00268,200.293494" id="Fill-85" fill="#DDDDDD"></path>
                <path d="M1116.30228,200.110142 C1122.12503,199.396131 1127.85263,199.681477 1133.60373,200.992003 C1134.00229,201.082384 1134.17134,200.378703 1133.77166,200.288322 C1127.97466,198.966175 1122.18437,198.658879 1116.30228,199.379346 C1115.90148,199.42841 1115.897,200.159206 1116.30228,200.110142" id="Fill-87" fill="#DDDDDD"></path>
                <path d="M1132.06044,201.303693 C1131.82742,217.117963 1132.2683,232.922222 1133.38088,248.697557 C1133.40932,249.099144 1134.02851,249.102481 1133.99898,248.697557 C1132.88749,232.922222 1132.44552,217.117963 1132.67854,201.303693 C1132.6851,200.898769 1132.067,200.898769 1132.06044,201.303693" id="Fill-89" fill="#DDDDDD"></path>
                <path d="M1117.59905,215.866893 C1120.5201,211.956847 1123.95376,208.52138 1127.86691,205.597929 C1128.18508,205.360089 1127.87354,204.819443 1127.55204,205.060587 C1123.54941,208.051205 1120.04725,211.55384 1117.05992,215.551975 C1116.82018,215.8735 1117.36152,216.185114 1117.59905,215.866893" id="Fill-91" fill="#DDDDDD"></path>
                <path d="M1117.58825,221.84086 C1120.53703,216.408298 1124.32001,211.627964 1128.89693,207.540977 C1129.20444,207.266836 1128.75491,206.811077 1128.44963,207.084075 C1123.8291,211.209898 1120.01817,216.033639 1117.04256,221.515318 C1116.84463,221.878555 1117.39033,222.20524 1117.58825,221.84086" id="Fill-93" fill="#DDDDDD"></path>
                <path d="M1119.53725,245.914131 C1124.32527,241.455484 1129.11328,236.997972 1133.9013,232.539325 C1134.19802,232.263497 1133.75896,231.810595 1133.46334,232.085287 C1128.67532,236.543934 1123.88731,241.001446 1119.09929,245.460094 C1118.80147,245.737056 1119.24053,246.189959 1119.53725,245.914131" id="Fill-95" fill="#DDDDDD"></path>
                <path d="M1120.56202,246.917631 C1125.03284,243.071292 1129.79023,239.638611 1134.8456,236.605876 C1135.2018,236.393333 1134.87756,235.833409 1134.52022,236.048237 C1129.41804,239.109539 1124.61613,242.579929 1120.10649,246.46055 C1119.79024,246.731371 1120.2492,247.187309 1120.56202,246.917631" id="Fill-97" fill="#DDDDDD"></path>
                <path d="M1059.37619,249.219675 C1058.82724,251.740507 1058.87857,254.31107 1059.53351,256.786592 C1059.63452,257.16234 1060.08577,257.000989 1059.98558,256.619715 C1059.35549,254.239236 1059.30001,251.810131 1059.82744,249.385446 C1059.91107,248.998646 1059.46064,248.83398 1059.37619,249.219675" id="Fill-99" fill="#DDDDDD"></path>
                <path d="M1167.32281,246.305252 C1167.58145,249.430467 1167.48028,252.508331 1167.00499,255.599724 C1166.9439,256.001086 1167.4631,256.173582 1167.52514,255.769965 C1168.00903,252.625583 1168.12642,249.487966 1167.86205,246.305252 C1167.82865,245.900507 1167.2894,245.895998 1167.32281,246.305252" id="Fill-101" fill="#DDDDDD"></path>
                <path d="M290.000747,348.300213 C292.099095,383.403545 293.396585,418.51571 293.429828,453.698546 C293.429828,454.100485 294.001006,454.100485 293.999999,453.698546 C293.966756,418.51571 292.668258,383.403545 290.56991,348.300213 C290.546741,347.901587 289.976571,347.898275 290.000747,348.300213" id="Fill-103" fill="#DDDDDD"></path>
                <path d="M290.302832,348.030814 C304.825428,347.334109 319.356899,347.840915 333.871731,348.522823 C341.230645,348.869325 348.58845,349.262686 355.948474,349.570962 C363.816544,349.901435 371.808853,349.651114 379.60593,350.995199 C380.000831,351.06302 380.171659,350.390978 379.772321,350.321924 C372.457777,349.06169 365.010121,349.238024 357.627912,348.943312 C350.275654,348.648599 342.927832,348.258938 335.577792,347.90627 C320.496122,347.186136 305.394485,346.609043 290.302832,347.334109 C289.900166,347.352606 289.897947,348.050543 290.302832,348.030814" id="Fill-105" fill="#DDDDDD"></path>
                <path d="M294.00255,327.302749 C294.799925,334.098668 295.551539,340.900208 296.351202,347.697251 C296.398106,348.098664 297.044472,348.103162 296.997567,347.697251 C296.199049,340.900208 295.447434,334.098668 294.648915,327.302749 C294.600867,326.901336 293.954501,326.896838 294.00255,327.302749" id="Fill-107" fill="#DDDDDD"></path>
                <path d="M294.309895,326.672469 C298.438429,326.718469 302.565827,326.761469 306.690955,326.566469 C307.101879,326.546469 307.104149,325.981469 306.690955,326.000469 C302.565827,326.195469 298.438429,326.152469 294.309895,326.107469 C293.896702,326.102469 293.896702,326.668469 294.309895,326.672469" id="Fill-109" fill="#DDDDDD"></path>
                <path d="M306.550136,326.299933 C306.358346,333.100069 306.192023,339.900206 306.000233,346.699242 C305.988296,347.100803 306.438723,347.099703 306.449864,346.699242 C306.641653,339.900206 306.807977,333.100069 306.999766,326.299933 C307.011704,325.899472 306.562073,325.900572 306.550136,326.299933" id="Fill-111" fill="#DDDDDD"></path>
                <path d="M289.000758,312.310225 C289.367619,318.228868 290.598268,325.508788 296.622557,327.975745 C296.998311,328.129788 297.16173,327.505631 296.790423,327.353871 C291.059622,325.006725 289.973494,317.856885 289.628868,312.310225 C289.60441,311.898305 288.975189,311.894882 289.000758,312.310225" id="Fill-113" fill="#DDDDDD"></path>
                <path d="M290.015514,311.388923 C291.842901,317.241603 297.415616,320.984103 299.349813,326.780958 C299.477521,327.166149 300.112578,327.000908 299.982548,326.613483 C298.04719,320.809929 292.473314,317.06408 290.64825,311.221448 C290.526347,310.832907 289.893611,310.998149 290.015514,311.388923" id="Fill-115" fill="#DDDDDD"></path>
                <path d="M299.737017,326.773197 C301.392567,320.595434 301.420514,314.415435 299.820859,308.227608 C299.718385,307.829475 298.993084,307.997228 299.096889,308.39536 C300.671258,314.495956 300.643311,320.516031 299.010385,326.605444 C298.905249,327.002458 299.630551,327.170211 299.737017,326.773197" id="Fill-117" fill="#DDDDDD"></path>
                <path d="M299.057557,308.465172 C302.888451,313.905195 305.880532,319.976548 303.4707,326.612836 C303.328946,326.999962 303.9686,327.166516 304.109183,326.781641 C306.56939,320.008058 303.560908,313.727387 299.629263,308.143317 C299.391443,307.806832 298.817394,308.124186 299.057557,308.465172" id="Fill-119" fill="#DDDDDD"></path>
                <path d="M303.596202,325.862289 C305.552627,323.022887 307.985902,320.578494 310.863718,318.575834 C311.187932,318.349659 310.873745,317.828288 310.545075,318.056587 C307.579242,320.122958 305.067977,322.632124 303.052503,325.558598 C302.829676,325.883526 303.374489,326.184032 303.596202,325.862289" id="Fill-121" fill="#DDDDDD"></path>
                <path d="M310.388994,318.282656 C310.028271,321.205136 308.05991,324.270585 305.202126,325.403834 C304.844634,325.545753 305.000768,326.121839 305.363644,325.976766 C308.506776,324.731033 310.600043,321.501589 310.997377,318.282656 C311.044755,317.904206 310.435295,317.90736 310.388994,318.282656" id="Fill-123" fill="#DDDDDD"></path>
                <path d="M380,349.302127 L380,434.697873 C380,435.100156 380.565,435.101261 380.565,434.697873 L380.565,349.302127 C380.565,348.899844 380,348.898739 380,349.302127" id="Fill-125" fill="#DDDDDD"></path>
                <path d="M300.302197,379.565 L363.698218,379.565 C364.10004,379.565 364.101147,379 363.698218,379 L300.302197,379 C299.899268,379 299.899268,379.565 300.302197,379.565" id="Fill-127" fill="#DDDDDD"></path>
                <path d="M304.302028,424.691427 C324.767343,425.460875 345.23155,426.230322 365.697972,426.99977 C366.10123,427.014449 366.100122,426.322069 365.697972,426.307389 C345.23155,425.537942 324.767343,424.768494 304.302028,424.00027 C303.89877,423.984367 303.899878,424.676748 304.302028,424.691427" id="Fill-129" fill="#DDDDDD"></path>
                <path d="M304.311196,369.566 L314.688376,369.566 C315.103875,369.566 315.103875,369 314.688376,369 L304.311196,369 C303.896839,369 303.895698,369.566 304.311196,369.566" id="Fill-131" fill="#DDDDDD"></path>
                <path d="M306.308097,418.566 L320.691055,418.566 C321.102416,418.566 321.103547,418 320.691055,418 L306.308097,418 C305.897866,418 305.896736,418.566 306.308097,418.566" id="Fill-133" fill="#DDDDDD"></path>
                <path d="M309.31426,450.565 L317.685309,450.565 C318.104321,450.565 318.105473,450 317.685309,450 L309.31426,450 C308.895247,450 308.895247,450.565 309.31426,450.565" id="Fill-135" fill="#DDDDDD"></path>
                <path d="M106.302114,9.9994952 C118.081494,9.40058667 129.602315,7.26717737 140.78357,3.60574198 C141.164195,3.4805647 141.00107,2.8913682 140.617116,3.01762459 C129.489126,6.66179415 118.031557,8.79196611 106.302114,9.38871642 C105.900406,9.40921959 105.898186,10.0199984 106.302114,9.9994952" id="Fill-137" fill="#DDDDDD"></path>
                <path d="M118.382019,13.9927279 C123.514961,12.883511 128.647903,11.7742942 133.779765,10.6662843 C134.165384,10.5817955 134.002279,9.92399005 133.61666,10.0072718 C128.485878,11.1164887 123.352936,12.2257056 118.219994,13.3349225 C117.834375,13.4182043 117.99856,14.0760097 118.382019,13.9927279" id="Fill-139" fill="#DDDDDD"></path>
                <g id="Group-143" transform="translate(313.000000, 0.000000)">
                    <mask id="mask-2" fill="white">
                        <use xlink:href="#path-1"></use>
                    </mask>
                    <g id="Clip-142"></g>
                    <path d="M0.307125,8.94911111 C11.90525,7.488 23.3097812,5.04577778 34.4988437,1.61466667 C34.878375,1.498 34.7175937,0.892444444 34.3336875,1.00911111 C23.1993125,4.42355556 11.8516562,6.86577778 0.307125,8.32133333 C-0.08225,8.37022222 -0.08771875,8.99911111 0.307125,8.94911111" id="Fill-141" fill="#DDDDDD" mask="url(#mask-2)"></path>
                </g>
                <path d="M323.392513,13.9891989 C329.186287,12.5345309 334.981177,11.0809924 340.776066,9.62632444 C341.168487,9.52806659 341.002377,8.91141387 340.607727,9.01080112 C334.812837,10.4643397 329.019063,11.9190076 323.225288,13.3736756 C322.830638,13.4719334 322.997863,14.0885861 323.392513,13.9891989" id="Fill-144" fill="#DDDDDD"></path>
                <path d="M1011.38942,44.9921061 C1018.519,43.5193331 1025.64857,42.0455236 1032.77594,40.5727505 C1033.16842,40.4919087 1033.00195,39.927052 1032.61058,40.0078939 C1025.4821,41.4806669 1018.35253,42.95344 1011.22406,44.4272495 C1010.83158,44.5080913 1010.99805,45.072948 1011.38942,44.9921061" id="Fill-146" fill="#DDDDDD"></path>
                <path d="M1024.40424,48.9897361 C1028.85906,47.8858199 1033.31274,46.783129 1037.76756,45.6792128 C1038.17431,45.5787454 1038.00245,44.9097795 1037.59684,45.0102469 C1033.14087,46.1141631 1028.68605,47.2180793 1024.23237,48.3219955 C1023.82561,48.4224629 1023.99748,49.0902035 1024.40424,48.9897361" id="Fill-148" fill="#DDDDDD"></path>
                <path d="M1315.02941,207.301493 C1314.87471,277.103305 1315.33027,346.90622 1316.39609,416.698092 C1316.40249,417.100084 1317.00635,417.101188 1316.99995,416.698092 C1315.93413,346.90622 1315.47857,277.103305 1315.6322,207.301493 C1315.63327,206.899502 1315.03048,206.899502 1315.02941,207.301493" id="Fill-150" fill="#DDDDDD"></path>
                <path d="M1312.47867,211.302405 C1311.65953,270.766591 1311.89211,330.237424 1313.17348,389.697179 C1313.18079,390.100386 1314.00871,390.101494 1313.99993,389.697179 C1312.71856,330.237424 1312.48745,270.766591 1313.30512,211.302405 C1313.31097,210.899198 1312.48452,210.899198 1312.47867,211.302405" id="Fill-152" fill="#DDDDDD"></path>
                <path d="M1028.3944,47.3027668 C1027.88211,78.7672192 1027.51236,110.232781 1027.00007,141.697233 C1026.99257,142.100922 1027.60024,142.100922 1027.60667,141.697233 C1028.11789,110.232781 1028.48871,78.7672192 1028.99993,47.3027668 C1029.00743,46.8990777 1028.4019,46.8990777 1028.3944,47.3027668" id="Fill-154" fill="#DDDDDD"></path>
                <path d="M1026.48548,141.104453 C1021.15603,147.486655 1012.02965,151.019198 1008.04074,158.521913 C1007.84986,158.880792 1008.38106,159.202546 1008.57303,158.842542 C1012.52813,151.403952 1021.62069,147.904035 1026.92069,141.554459 C1027.1792,141.24508 1026.74508,140.79395 1026.48548,141.104453" id="Fill-156" fill="#DDDDDD"></path>
                <path d="M1027.13744,141.611589 C1033.82755,146.486748 1040.99591,150.504115 1046.47478,156.895689 C1046.74061,157.206893 1047.18328,156.751969 1046.91857,156.443028 C1041.40187,150.005056 1034.19681,145.970715 1027.45554,141.059342 C1027.12521,140.8183 1026.81156,141.373942 1027.13744,141.611589" id="Fill-158" fill="#DDDDDD"></path>
                <path d="M1008.38489,158.988339 C1020.94029,155.52086 1033.78902,154.759444 1046.61148,156.73984 C1047.00004,156.80061 1047.16969,156.151202 1046.77566,156.090432 C1033.83608,154.090972 1020.88447,154.841663 1008.22071,158.338932 C1007.83434,158.444982 1007.99743,159.094389 1008.38489,158.988339" id="Fill-160" fill="#DDDDDD"></path>
                <path d="M1011.38544,153.994897 C1020.10175,152.539019 1028.85721,151.739429 1037.70185,151.586779 C1038.09884,151.580549 1038.09993,150.992798 1037.70185,151.000067 C1028.80826,151.152716 1019.98319,151.964768 1011.2223,153.428953 C1010.83292,153.494374 1010.99824,154.05928 1011.38544,153.994897" id="Fill-162" fill="#DDDDDD"></path>
                <path d="M1020.14266,157.428231 C1025.31912,161.169591 1032.09171,160.786979 1036.89465,156.553521 C1037.20647,156.27804 1036.75669,155.809487 1036.44487,156.082613 C1031.84606,160.137126 1025.39764,160.418493 1020.46234,156.853724 C1020.12472,156.61003 1019.80729,157.186891 1020.14266,157.428231" id="Fill-164" fill="#DDDDDD"></path>
                <path d="M861.301409,335.565 L1105.25223,335.565 L1174.69818,335.565 C1175.10061,335.565 1175.10061,335 1174.69818,335 L930.747359,335 L861.301409,335 C860.900083,335 860.898978,335.565 861.301409,335.565" id="Fill-166" fill="#DDDDDD"></path>
                <path d="M899,319.310572 L899,335.689001 C899,336.103097 899.566,336.104235 899.566,335.689001 L899.566,319.310572 C899.566,318.896476 899,318.896476 899,319.310572" id="Fill-168" fill="#DDDDDD"></path>
                <path d="M899.306888,319.565 L913.693533,319.565 C914.101593,319.565 914.102717,319 913.693533,319 L899.306888,319 C898.897704,319 898.897704,319.565 899.306888,319.565" id="Fill-170" fill="#DDDDDD"></path>
                <path d="M913.051764,320.313051 C912.941764,324.77718 913.006764,329.230989 913.249764,333.688238 C913.273764,334.102199 913.838764,334.105639 913.816764,333.688238 C913.572764,329.230989 913.506764,324.77718 913.616764,320.313051 C913.627764,319.89565 913.062764,319.89565 913.051764,320.313051" id="Fill-172" fill="#DDDDDD"></path>
                <path d="M913.634058,324.069072 C913.709134,323.867779 914.201706,323.400779 914.419609,323.678564 C914.502926,323.784242 914.480952,324.178777 914.483699,324.32874 C914.491939,324.749443 914.432427,325.174171 914.318898,325.575751 C914.095501,326.362807 913.668849,327.011977 913.088383,327.5293 C912.82928,327.759781 913.197335,328.160354 913.454608,327.931886 C914.554197,326.952596 915.152974,325.395594 914.9662,323.842617 C914.899364,323.28101 914.812385,322.991148 914.246568,323.000206 C913.707303,323.009264 913.327345,323.401786 913.134162,323.918102 C913.007814,324.256275 913.508626,324.404225 913.634058,324.069072" id="Fill-174" fill="#DDDDDD"></path>
                <path d="M900.228658,334.443717 C904.73089,335.122071 909.234248,335.179137 913.77028,334.619736 C914.172506,334.569904 914.002377,334.131867 913.600151,334.180895 C909.171154,334.72824 904.798491,334.66796 900.397661,334.00568 C899.998815,333.9454 899.827559,334.383437 900.228658,334.443717" id="Fill-176" fill="#DDDDDD"></path>
                <path d="M904.573454,316.60213 C904.424192,315.605169 905.183439,314.927056 905.546643,314.138918 C905.787452,313.613493 905.927759,313.033056 905.979503,312.445882 C906.084981,311.245712 905.778497,310.118518 905.172493,309.140643 C904.965516,308.808323 904.476931,309.126048 904.685898,309.461736 C905.581471,310.903287 905.671028,312.65695 904.876954,314.175968 C904.404291,315.078621 903.865952,315.678145 904.03014,316.770535 C904.091835,317.172463 904.634154,317.001812 904.573454,316.60213" id="Fill-178" fill="#DDDDDD"></path>
                <path d="M907.680404,316.772608 C908.115495,315.314488 908.550586,313.856368 908.985677,312.398248 C909.105449,311.999028 908.438147,311.828421 908.318374,312.226504 C907.884506,313.685761 907.449415,315.142744 907.014324,316.602001 C906.894552,317.001221 907.561854,317.171828 907.680404,316.772608" id="Fill-180" fill="#DDDDDD"></path>
                <path d="M865.301984,338.566 L1116.45083,338.566 L1187.69802,338.566 C1188.10066,338.566 1188.10066,338 1187.69802,338 L936.54917,338 L865.301984,338 C864.899339,338 864.899339,338.566 865.301984,338.566" id="Fill-182" fill="#DDDDDD"></path>
                <path d="M871,342.302111 L871,471.697474 C871,472.100289 871.565,472.101395 871.565,471.697474 L871.565,342.302111 C871.565,341.899296 871,341.899296 871,342.302111" id="Fill-184" fill="#DDDDDD"></path>
                <path d="M123,84 C123,84 111.415809,94.5930959 112.529779,97.6819749 C113.644853,100.771947 116.762868,103.199781 116.094485,103.861918 C115.426103,104.524055 114.980515,108.055451 114.980515,108.055451 L78,116 C78,116 99.9441176,94.5930959 123,84" id="Fill-186" fill="#E9F9FF"></path>
                <path d="M329,142 C329,142 324.153023,150.112315 323.38174,152.140672 C322.610456,154.16903 326.246507,155.408582 325.033399,156.986193 C323.822473,158.563805 319.194772,162.394031 319.304955,162.957464 C319.415139,163.520896 303,166 303,166 C303,166 314.677254,153.492911 329,142" id="Fill-188" fill="#E9F9FF"></path>
                <g id="Group-192" transform="translate(0.000000, 52.000000)" fill="#E9F9FF">
                    <path d="M1.33919023,487.065275 C1.33919023,487.065275 -4.90520566,145.135516 9.57219794,91.9955247 C24.0496015,38.8566404 56.2200129,67.8411846 81.9581105,22.7537469 C107.695103,-22.3336907 155.952378,0.20947483 176.863201,91.9955247 C197.775129,183.781575 218.815283,167.548105 231.619113,186.936423 C244.422943,206.325847 271.769396,278.788867 281.42063,285.230246 C291.071864,291.671624 376.32572,283.619071 392.411478,302.943207 C408.497237,322.266237 429.409165,410.832151 429.409165,410.832151 L294.155925,402.413321 L259.594537,401.391951 L1.33919023,487.065275 Z" id="Fill-190" style="mix-blend-mode: multiply;"></path>
                </g>
                <path d="M184.265668,705.961907 C234.012204,663.542476 285.054574,621.782317 337.38173,580.73129 C352.141862,569.150267 367.005836,557.626861 381.964817,546.157748 C382.079707,546.070214 381.886382,545.940576 381.769282,546.030326 C328.537362,586.84202 276.557086,628.361738 225.899158,670.571753 C211.840523,682.285739 197.885731,694.05291 184.027049,705.869941 C183.919891,705.961907 184.15851,706.053872 184.265668,705.961907" id="Fill-193" fill="#CCCCCC"></path>
                <path d="M480.252946,724.953658 C517.042904,674.528581 550.501049,623.059213 580.441057,570.711141 C588.905095,555.911145 597.082479,541.041603 604.991951,526.110243 C605.049282,525.999853 604.783575,525.952385 604.725141,526.062775 C576.758643,578.862343 545.312595,630.861583 510.425585,681.850754 C500.560244,696.269904 490.415967,710.606262 480.014802,724.862035 C479.938728,724.966905 480.176872,725.058529 480.252946,724.953658" id="Fill-195" fill="#CCCCCC"></path>
                <g id="Group-199" transform="translate(721.000000, 512.000000)">
                    <mask id="mask-4" fill="white">
                        <use xlink:href="#path-3"></use>
                    </mask>
                    <g id="Clip-198"></g>
                    <path d="M0.05017,0.306062439 C16.26637,58.58416 30.66867,117.081506 43.20757,175.754916 C46.84967,192.794311 50.33227,209.846994 53.66417,226.914072 C53.68727,227.028126 53.96227,227.029233 53.93917,226.914072 C42.38367,167.740155 28.97577,108.726799 13.68577,49.9238332 C9.37707,33.3517259 4.91767,16.7962283 0.31527,0.257340488 C0.28337,0.143286829 0.01827,0.190901463 0.05017,0.306062439" id="Fill-197" fill="#CCCCCC" mask="url(#mask-4)"></path>
                </g>
                <path d="M887.01842,539.136547 C924.930053,584.097004 962.84389,629.05857 1000.75552,674.019027 C1011.41927,686.665298 1022.08192,699.310462 1032.74457,711.955625 C1032.83053,712.057548 1033.06748,711.965596 1032.98151,711.863672 C995.069881,666.903215 957.158247,621.941649 919.24441,576.980084 C908.581763,564.33492 897.919117,551.689757 887.25647,539.044594 C887.170507,538.94267 886.932458,539.033515 887.01842,539.136547" id="Fill-200" fill="#CCCCCC"></path>
                <path d="M1061.0319,526.141104 C1128.32669,579.260233 1197.34917,631.43434 1268.06615,682.603738 C1288.15582,697.140512 1308.38485,711.594388 1328.74218,725.968684 C1328.86164,726.053792 1329.08728,725.947684 1328.9645,725.861471 C1257.30514,675.261297 1187.29493,623.656415 1119.02127,571.077772 C1099.62512,556.140883 1080.37165,541.124414 1061.25423,526.033891 C1061.14141,525.944362 1060.91687,526.05047 1061.0319,526.141104" id="Fill-202" fill="#CCCCCC"></path>
                <path d="M855.482474,590.354297 C820.296604,587.810566 784.535602,589.163124 749.401715,590.884561 C694.899176,593.556742 638.590502,588.148705 584.791392,596.390307 C580.837364,596.995225 562.051585,597.685776 541.551472,599.42478 C529.671692,594.102376 511.115965,594.768774 503.693453,594.602998 C475.019839,593.965144 446.770938,590.068854 418.064143,588.405603 C338.878516,583.817665 200.71096,590.110573 164.333905,612.472793 C143.801717,625.095936 184.551983,635.751722 252.145396,639.868681 C284.383718,641.832744 317.084357,640.931405 349.246364,639.146292 C399.140111,636.375304 450.67077,641.682338 499.931873,633.343027 C502.62393,632.887417 508.761245,632.224312 515.914994,631.05839 C541.739495,634.882221 573.723432,634.968951 580.759943,635.123749 C612.086903,635.818691 642.957076,639.770971 674.320535,641.491311 C760.840192,646.235145 896.520305,640.171689 936.216532,617.880829 C958.623426,605.298307 875.012606,591.766139 855.482474,590.354297" id="Fill-204" fill="#EBF5FF"></path>
                <path d="M1108.48247,656.354197 C1073.2955,653.810461 1037.5356,655.163021 1002.40172,656.884462 C947.899177,659.556648 891.590505,654.148601 837.790289,662.390218 C833.836261,662.995138 815.051588,663.68569 794.551475,665.424697 C782.671695,660.102283 764.115968,660.768682 756.692351,660.602906 C728.019843,659.965051 699.769835,656.068754 671.064147,654.405499 C591.877414,649.817552 453.710966,656.11157 417.333911,678.472735 C396.801723,691.095902 437.551989,701.751708 505.144295,705.868675 C537.383723,707.832742 570.083256,706.931401 602.246368,705.146284 C652.140115,702.375292 703.670774,707.682335 752.931877,699.343009 C755.623934,698.887398 761.761248,698.224292 768.913891,697.058367 C794.739499,700.882205 826.723435,700.968936 833.759946,701.124832 C865.086905,701.818678 895.957078,705.770965 927.320537,707.491308 C1013.84019,712.235151 1149.5192,706.171683 1189.21653,683.880782 C1211.62343,671.298235 1128.01261,657.766042 1108.48247,656.354197" id="Fill-206" fill="#EBF5FF"></path>
                <path d="M380.190599,292 L387,277.650357 L378.526888,273.629631 C375.282266,272.089567 371.401746,273.471761 369.862786,276.717487 L368.629631,279.314068 C367.089567,282.559794 368.471761,286.43921 371.717487,287.979274 L380.190599,292 Z" id="Fill-208" fill="#070707"></path>
                <path d="M373.518372,287 C371.154305,285.230904 369.813303,282.165015 370.021064,279 L370.881488,279.069971 C370.696812,281.893294 371.890912,284.626822 374,286.203499 L373.518372,287 Z" id="Fill-210" fill="#FFFFFF"></path>
                <path d="M407.894359,297.035614 C407.894359,297.035614 408.841524,305.805354 405.06364,305.995142 C401.286834,306.18493 393.550038,300.751289 393.550038,300.751289 C393.550038,300.751289 392.60395,294.513519 393.193369,293.483398 C393.783866,292.453277 401.286834,293.225593 401.454931,294.341283 C401.624106,295.45807 398.403315,296.575954 398.403315,296.575954 L407.894359,297.035614 Z" id="Fill-212" fill="#FCB69D"></path>
                <path d="M344.108825,284 C346.634418,284 348.963859,285.362451 350.192855,287.561805 L380.94103,336.909256 C380.94103,336.909256 385.704082,327.616103 390.480433,310.701393 L408,322.16409 C406.733325,333.666534 403.367715,349.457277 394.817936,365.019472 C390.45162,372.965632 379.5724,374.391017 373.195805,367.934279 L342.396653,336.744746 L328,284 L344.108825,284 Z" id="Fill-214" fill="#9654DE"></path>
                <path d="M333.992559,605.764619 C333.420261,605.600102 332.814167,605.446932 332.183288,605.293762 C327.241026,604.100167 324.452765,598.808415 326.196695,594 L310.85056,594 C310.66017,596.78997 310.481045,599.624189 310.327832,602.551445 L310,606.823196 C310.748042,607.536856 311.662817,608.31065 312.550554,608.776969 C314.523178,609.812855 329.972957,610.912277 332.494221,608.776969 C333.717676,607.739949 334.056773,606.691583 333.992559,605.764619" id="Fill-216" fill="#FFC3A9"></path>
                <path d="M343.624809,608.024339 C339.971199,606.489947 334.111614,605 334.111614,605 C330.645083,607.69418 326.252065,609.066667 321.777757,608.891005 C317.688743,608.730159 313.832463,608.263492 312.917112,607.809524 C312.039622,607.374603 311.135406,606.65291 310.395999,605.987302 L310.009591,610.73545 C309.867055,612.496296 311.331394,614 313.189936,614 L337.10488,614 C347.832975,613.919577 347.278419,609.55873 343.624809,608.024339" id="Fill-218" fill="#182646"></path>
                <path d="M306.992559,611.764843 C306.420261,611.600324 305.814167,611.44715 305.183288,611.293977 C300.239899,610.10036 297.452765,604.808507 299.196695,600 L283.85056,600 C283.66017,602.790023 283.481045,605.623162 283.327832,608.551608 L283,612.823441 C283.748042,613.537115 284.661691,614.310924 285.549428,614.776117 C287.523178,615.813156 302.971831,616.9126 305.494221,614.776117 C306.717676,613.740211 307.056773,612.690691 306.992559,611.764843" id="Fill-220" fill="#FFC3A9"></path>
                <path d="M316.624809,615.024339 C312.971199,613.489947 307.111614,612 307.111614,612 C303.645083,614.69418 299.252065,616.066667 294.777757,615.891005 C290.688743,615.730159 286.832463,615.263492 285.917112,614.808466 C285.039622,614.374603 284.135406,613.65291 283.395999,612.987302 L283.009591,617.73545 C282.867055,619.496296 284.331394,621 286.189936,621 L310.10488,621 C320.832975,620.918519 320.278419,616.55873 316.624809,615.024339" id="Fill-222" fill="#182646"></path>
                <path d="M289.424686,284 L338.21308,284 C341.102713,284 343.687769,285.810978 344.692763,288.540746 L355,316.511162 L344.862095,341.358362 L341.905389,373.984788 L277.081071,375 L276.002407,297.785158 C275.861664,290.213185 281.91142,284 289.424686,284" id="Fill-224" fill="#9654DE"></path>
                <path d="M335.407993,284 L335.993579,293.292679 C336.156668,295.972349 333.177291,297.605608 331.106393,295.970097 L325.26804,291.358675 C323.308787,289.812148 320.647925,289.603767 318.483991,290.828148 L306.506281,297.607861 C304.479166,298.755647 302,297.246291 302,294.865113 L302,284" id="Fill-226" fill="#182646"></path>
                <path d="M311.062164,579.004622 L316.328249,430.155994 L322.714286,476.83813 L311.062164,579.004622 Z M277,375.015215 L282.469813,609 L308.148308,609 L310.159155,604.884835 L330.579275,604.884835 L357,482.518233 L341.92195,374 L277,375.015215 Z" id="Fill-228" fill="#182646"></path>
                <path d="M294.813587,411 L304.985531,416.03884 C304.985531,416.03884 305.556377,418.823024 299.526954,418.06037 C297.063653,417.749536 302.388959,429.733294 303.279656,430.955537 C304.169243,432.178891 302.567764,434.421336 299.415894,430.715751 C299.415894,430.715751 300.522048,434.364719 299.168232,434.757702 C298.020987,435.091849 295.044591,430.97885 295.044591,430.97885 C295.044591,430.97885 296.149633,435.488162 294.512615,434.956414 C292.875598,434.424666 291.33298,431.466193 291.33298,431.466193 C291.33298,431.466193 291.607298,435.702415 289.139554,433.841852 C286.655152,431.970188 282.75363,421.950235 281,414.162735" id="Fill-230" fill="#FFC3A9"></path>
                <path d="M275.210819,295.509068 C276.369667,288.860535 282.234513,284 289.097941,284 L291.01217,284 L298,306.851785 L285.671831,357.749695 L297.293932,397.3798 L276.967023,405 L263.555096,359.922173 C262.926359,357.813591 262.829975,355.584928 263.27491,353.431178 L275.210819,295.509068 Z" id="Fill-232" fill="#9654DE"></path>
                <polygon id="Fill-234" fill="#9654DE" points="299 409.722214 280.088213 420 276 405.691382 295.699235 398"></polygon>
                <polygon id="Fill-236" fill="#000000" points="346.865319 336 346 335.652345 353.995957 316.597057 348.584586 302.318684 349.461276 302 355 316.614885"></polygon>
                <path d="M407.952055,306.753271 C408.04612,309.422209 408.078933,314.870883 407.291418,322 L390,310.722461 C390.929705,307.440873 391.857222,303.851874 392.75302,300 L407.952055,306.753271 Z" id="Fill-238" fill="#9654DE"></path>
                <polygon id="Fill-240" fill="#182646" points="414 299.491315 393.739265 285 390 292.406722 412.129273 304"></polygon>
                <path d="M395.80669,288.046539 C397.002799,286.187116 399.705365,285.480815 402.181521,286.403528 C405.911218,287.792443 411.606818,290.689785 410.947467,295.271051 C409.911502,302.464339 406.4292,303.769273 405.918949,302.644144 C405.407593,301.517939 405.204376,299.768336 405.204376,299.768336 C405.204376,299.768336 403.177727,301.311216 402.12409,301.039893 C401.071559,300.767494 401.074872,297.808782 401.074872,297.808782 C401.074872,297.808782 399.423733,298.964058 398.268488,298.656128 C397.113243,298.349274 397.032619,295.685572 397.032619,295.685572 C397.032619,295.685572 396.140231,297.550379 394.666907,296.848385 C393.597808,296.339116 393.701626,291.318565 395.80669,288.046539" id="Fill-242" fill="#FFC3A9"></path>
                <polygon id="Fill-244" fill="#182646" points="388.919978 299 396 284.080022 381.080022 277 374 291.919978"></polygon>
                <polygon id="Fill-246" fill="#5CA8C9" points="390.919978 294 398 279.080022 383.080022 272 376 286.919978"></polygon>
                <polygon id="Fill-248" fill="#FFFFFF" points="390.619934 293 378 286.857753 378.380066 286 391 292.141097"></polygon>
                <path d="M398.033438,296 L397,295.831245 C397.336096,293.909434 398.499857,292.224102 399.54587,291.040595 C399.967705,291.002847 400.456988,290.990634 401,291.007288 C399.940269,292.062008 398.398114,293.903882 398.033438,296" id="Fill-250" fill="#FCB69D"></path>
                <path d="M401,298.296814 L401.778191,299 C403.304429,297.109894 403.823595,294.503624 404,292.797573 C403.685151,292.52385 403.362486,292.257205 403.035355,292 C402.94492,293.459464 402.564198,296.359515 401,298.296814" id="Fill-252" fill="#FCB69D"></path>
                <path d="M406,299.341613 L406.796733,300 C408.257979,298.31177 408.800532,296.028545 409,294.42595 C408.656915,294.258017 408.321809,294.116775 407.995821,294 C407.840805,295.473587 407.37804,297.749027 406,299.341613" id="Fill-254" fill="#FCB69D"></path>
                <polygon id="Fill-256" fill="#000000" points="311.942264 579 311 578.96795 317.057736 413 318 413.03205"></polygon>
                <path d="M351.0533,486 L351,485.052692 C353.653858,484.921154 353.976139,483.078462 353.989774,483 L355,483.129231 C354.86613,484.061538 353.868299,485.861538 351.0533,486" id="Fill-258" fill="#FFFFFF"></path>
                <path d="M309.053284,483 L309,482.051538 C311.654275,481.921154 311.976456,480.078462 311.990087,480 L313,480.129231 C312.866171,481.061538 311.868649,482.861538 309.053284,483" id="Fill-260" fill="#FFFFFF"></path>
                <polygon id="Fill-262" fill="#000000" points="312.388179 414 312 413.213836 324.611821 408 325 408.786164"></polygon>
                <path d="M300.123379,410 C295.715861,394.795643 285.03218,358.226818 285.03218,358.226818 L285,358.112027 L285.027741,357.995028 L297.232748,307 L298.121576,307.210819 L285.94431,358.088848 C286.600111,360.339424 296.736736,395.040679 301,409.748342 L300.123379,410 Z" id="Fill-264" fill="#000000"></path>
                <path d="M341.749815,247.589898 C341.749815,247.589898 345.125093,264.596505 350,272.533071 C350,272.533071 342.375031,278.39104 329.624845,276.690267 L323,244 L341.749815,247.589898 Z" id="Fill-266" fill="#182646"></path>
                <path d="M309.189623,285.995507 L309.000237,251.002716 C308.953991,242.397075 315.690402,235.313149 324.210563,235.009695 C332.222024,234.724026 339.068543,240.784212 339.834895,248.839634 L340.985524,267.066876 C341.233267,270.987322 338.27136,274.359773 334.386748,274.582084 L330.795024,274.787721 L331.10663,285.614245 C331.286106,291.86784 326.298211,297.02878 320.099128,296.999879 C314.089431,296.97209 309.222655,292.063474 309.189623,285.995507" id="Fill-268" fill="#FFC3A9"></path>
                <polygon id="Fill-270" fill="#070707" points="335 261.666751 331.091131 262 331 260.838161 333.84025 260.594458 333.544074 253.048741 334.661513 253"></polygon>
                <path d="M332.186139,266.977234 C328.99604,267.19117 327.104703,265.828884 327,265.751176 L327.746287,265 C327.86547,265.086342 330.745916,267.120178 335.503218,265.157334 L336,266.047617 C334.582054,266.633784 333.304455,266.902404 332.186139,266.977234" id="Fill-272" fill="#070707"></path>
                <path d="M327.996208,253.977343 L328.022758,253.997258 C328.020861,253.983981 328.009483,253.975446 327.996208,253.977343 M328.139388,254.990158 C327.594166,255.066972 327.086872,254.685744 327.010067,254.140455 C326.932313,253.595166 327.313495,253.087811 327.858717,253.010048 C328.405836,252.932285 328.913129,253.314461 328.989934,253.85975 C329.067688,254.405039 328.686506,254.912395 328.139388,254.990158" id="Fill-274" fill="#070707"></path>
                <path d="M336.996682,253.97677 L337.022277,253.996673 C337.020381,253.983404 337.009954,253.975822 336.996682,253.97677 M337.140772,254.989939 C336.594748,255.067656 336.08759,254.686652 336.009858,254.139787 C335.933073,253.594818 336.313204,253.087759 336.859228,253.010042 C337.4062,252.932324 337.91241,253.314277 337.990142,253.859246 C338.066927,254.406111 337.686796,254.91317 337.140772,254.989939" id="Fill-276" fill="#070707"></path>
                <polygon id="Fill-278" fill="#DD9A83" points="330.754137 274 324 274 331 283"></polygon>
                <path d="M328.161126,249.436632 L345,249.436632 C345,249.436632 343.509306,225.6496 318.628644,229.401335 C290.976706,233.571274 301.074281,271.624582 298,278 L320.549516,278 L316.962119,261.933243 C316.962119,261.933243 312.60615,261.423694 312.862709,257.852448 C313.118162,254.282302 317.379026,254.983345 319.333075,257.788616 L319.012376,249.436632 L325.659679,249.436632 C327.509776,247.635051 327.937743,244.925526 327.937743,244.925526 C327.937743,244.925526 328.643279,246.946114 328.161126,249.436632" id="Fill-280" fill="#182646"></path>
                <path d="M316.977604,260.579093 C317.08028,260.765963 317.233267,260.919977 317.420137,261.022653 C318.193288,261.444651 318.193288,262.554579 317.420137,262.976577 C317.233267,263.079253 317.08028,263.233267 316.977604,263.420137 C316.554579,264.193288 315.444651,264.193288 315.022653,263.420137 C314.919977,263.233267 314.76699,263.079253 314.579093,262.976577 C313.806969,262.554579 313.806969,261.444651 314.579093,261.022653 C314.76699,260.919977 314.919977,260.765963 315.022653,260.579093 C315.444651,259.806969 316.554579,259.806969 316.977604,260.579093" id="Fill-282" fill="#F9D671"></path>
                <polygon id="Fill-284" fill="#C2EFFF" points="470 685 475.702058 685 506 482 491.818381 482"></polygon>
                <polygon id="Fill-286" fill="#C2EFFF" points="989.296671 685 995 685 973.180954 482 959 482"></polygon>
                <path d="M654.88225,667.041067 L654.863528,668.442052 C654.844807,669.813897 654.117975,671.072543 652.950639,671.755103 L639.095684,679.859524 C636.596925,681.321033 635.039743,684.016529 635.000098,686.949632 C634.991288,687.69944 635.579361,688.314753 636.316104,688.32596 L681.124179,688.999554 C683.176929,689.030936 684.886084,687.40131 684.989603,685.314402 L685.995053,665.079687 C686.111787,662.718186 684.146038,660.799396 681.834492,661.016829 L658.345713,663.229265 C656.40309,663.411954 654.90868,665.05615 654.88225,667.041067" id="Fill-288" fill="#000000"></path>
                <polyline id="Fill-290" fill="#0E192D" points="684.16677 551.548697 688 667 644.262541 664.476426 635 545"></polyline>
                <polygon id="Fill-292" fill="#9654DE" points="690 676 689.968107 663.725299 644 661 645.160255 675.138417"></polygon>
                <path d="M578.882265,667.041067 L578.863544,668.442052 C578.844822,669.813897 578.117991,671.072543 576.950656,671.755103 L563.096809,679.859524 C560.59695,681.321033 559.039769,684.016529 559.000123,686.949632 C558.990212,687.69944 559.579386,688.314753 560.316129,688.32596 L605.124182,688.999554 C607.17693,689.030936 608.886085,687.40131 608.989603,685.314402 L609.995053,665.079687 C610.111787,662.718186 608.146038,660.799396 605.834494,661.016829 L582.345727,663.229265 C580.403105,663.411954 578.908696,665.05615 578.882265,667.041067" id="Fill-294" fill="#000000"></path>
                <path d="M737.610665,492 C737.610665,492 742.612359,531.804678 716.76123,547.946499 C687.435379,566.256806 625.225909,559.875388 625.225909,559.875388 L608.190031,673.491657 L572,674 L573.046403,549.077257 C573.118377,540.429893 578.923975,532.883384 587.261977,530.597503 L638.872329,516.444753" id="Fill-296" fill="#182646"></path>
                <polygon id="Fill-298" fill="#9654DE" points="613 676 612.968107 663.725299 567 661 568.160255 675.138417"></polygon>
                <polygon id="Fill-300" fill="#3C4BB4" points="447 483 1019 483 1019 472 447 472"></polygon>
                <polygon id="Fill-302" fill="#ACEBFC" points="751 385 767.822351 472 774 472 757.177649 385"></polygon>
                <path d="M863.864649,387.35918 C863.604936,385.990151 862.404732,385 861.005598,385 L757,385 L773.585151,472 L880,472 L863.864649,387.35918 Z" id="Fill-303" fill="#C2EFFF"></path>
                <polyline id="Fill-304" fill="#ACEBFC" points="768.258763 467 892.460353 467 895 472 767 472"></polyline>
                <polygon id="Fill-305" fill="#FFFFFF" points="872 464 857.303371 390 763 390 777.696629 464"></polygon>
                <polygon id="Fill-306" fill="#BEDEFC" points="852.787672 395 770 395 771.212328 401 854 401"></polygon>
                <path d="M775.968877,398 C776.105236,398.552788 775.780701,399 775.246173,399 C774.71028,399 774.16757,398.552788 774.031211,398 C773.894851,397.447212 774.218023,397 774.752552,397 C775.288444,397 775.831154,397.447212 775.968877,398" id="Fill-307" fill="#FFFFFF"></path>
                <path d="M778.968876,398 C779.105241,398.552788 778.780692,399 778.246141,399 C777.710227,399 777.167494,398.552788 777.031129,398 C776.894764,397.447212 777.219313,397 777.7525,397 C778.288414,397 778.832511,397.447212 778.968876,398" id="Fill-308" fill="#FFFFFF"></path>
                <path d="M816.968876,388 C817.105241,388.552788 816.780692,389 816.246141,389 C815.710227,389 815.167494,388.552788 815.031129,388 C814.894764,387.447212 815.219313,387 815.7525,387 C816.288414,387 816.832511,387.447212 816.968876,388" id="Fill-309" fill="#FFFFFF"></path>
                <path d="M782.968876,398 C783.105241,398.552788 782.780692,399 782.246141,399 C781.710227,399 781.167494,398.552788 781.031129,398 C780.894764,397.447212 781.219313,397 781.7525,397 C782.288414,397 782.832511,397.447212 782.968876,398" id="Fill-310" fill="#FFFFFF"></path>
                <polygon id="Fill-311" fill="#CDE0FF" points="801 459 783.331604 459 771 401 788.668396 401"></polygon>
                <polygon id="Fill-312" fill="#C3D3FF" points="777.462276 410 787 410 786.537724 408 777 408"></polygon>
                <polygon id="Fill-313" fill="#C3D3FF" points="787.537724 414 778 414 778.463417 416 788 416"></polygon>
                <polygon id="Fill-314" fill="#C3D3FF" points="788.536583 420 779 420 779.462276 422 789 422"></polygon>
                <polygon id="Fill-315" fill="#C3D3FF" points="790.537724 427 781 427 781.462276 429 791 429"></polygon>
                <polygon id="Fill-316" fill="#C3D3FF" points="791.536635 433 782 433 782.463365 435 792 435"></polygon>
                <polygon id="Fill-317" fill="#C3D3FF" points="793.536583 439 784 439 784.462276 441 794 441"></polygon>
                <polygon id="Fill-318" fill="#3C4BB4" points="769 467.918 841 467.918 841 467 769 467"></polygon>
                <polygon id="Fill-319" fill="#3C4BB4" points="772.033002 468 757 389.194326 757.966998 389 773 467.805674"></polygon>
                <polygon id="Fill-320" fill="#3C4BB4" points="766.979446 473 750 385.192312 751.021686 385 768 472.8088"></polygon>
                <polygon id="Fill-321" fill="#3C4BB4" points="757 384.918 862 384.918 862 384 757 384"></polygon>
                <polygon id="Fill-322" fill="#B68CED" points="987.538205 473 968.461795 473 966 438 990 438"></polygon>
                <polygon id="Fill-323" fill="#3C4BB4" points="965 448 991 448 990.07422 462 966.002835 462"></polygon>
                <polygon id="Fill-324" fill="#3C4BB4" points="965 441 992 441 992 437 965 437"></polygon>
                <path d="M643.72813,331.376314 C647.309938,332.915145 644.49574,342.915314 644.49574,342.915314 C644.49574,342.915314 645.775832,339.32508 649.100284,339.581924 C652.426964,339.838769 650.380376,345.222444 647.565065,346.248704 C647.565065,346.248704 648.082004,362.858699 671,358.164036 C670.571074,356.708958 670.08533,355.068506 669.548338,353.265014 C666.58708,343.334082 662.273314,329.251208 659.957115,323.490084 C656.209308,314.162176 640.144095,317.170602 633.479594,314.449172 C615.761067,307.211752 610.522604,329.385214 632.414521,330.381322 C633.536412,330.432691 633.783741,330.415941 633.783741,330.415941 C633.783741,330.415941 640.147437,329.837483 643.72813,331.376314" id="Fill-325" fill="#070707"></path>
                <path d="M632.498458,335.926936 C630.69061,335.926936 629.13502,337.298913 628.946995,339.135611 C628.848895,340.084902 629.126845,341.014344 629.729461,341.754628 C630.332077,342.494912 631.186951,342.957297 632.135254,343.053044 C633.082388,343.152293 634.015509,342.87206 634.755932,342.270725 C635.495188,341.668223 635.957661,340.814678 636.054593,339.865386 C636.255465,337.906086 634.824836,336.14762 632.863999,335.946786 C632.742541,335.933942 632.619916,335.926936 632.498458,335.926936 M632.510137,344 C632.353644,344 632.19715,343.990659 632.040657,343.97548 C630.845936,343.854045 629.769169,343.273728 629.011227,342.339616 C628.25095,341.407839 627.900592,340.235528 628.024385,339.041032 C628.277811,336.572641 630.479228,334.767469 632.959763,335.02435 C635.427452,335.277728 637.230629,337.492741 636.976035,339.959965 C636.85341,341.154461 636.271815,342.231025 635.34103,342.988824 C634.530535,343.64854 633.54019,344 632.510137,344" id="Fill-326" fill="#070707"></path>
                <path d="M632.997881,336.98229 C631.447546,336.98229 630.159273,338.145403 630.000413,339.688876 C629.919243,340.491343 630.154634,341.278734 630.661363,341.900298 C631.170411,342.5265 631.891659,342.916137 632.691757,342.997312 C633.489536,343.084284 634.276878,342.8454 634.904202,342.335161 C635.529206,341.827241 635.916499,341.108268 635.998828,340.306961 C636.079998,339.507973 635.845766,338.721741 635.336718,338.095538 C634.82767,337.471655 634.106423,337.079699 633.308644,336.999684 C633.204283,336.988088 633.101082,336.98229 632.997881,336.98229 M633.009477,345 C632.835542,345 632.661608,344.991883 632.487674,344.973328 C631.161134,344.837651 629.965626,344.190575 629.121464,343.152703 C628.279622,342.118309 627.890009,340.8172 628.026838,339.487099 C628.162506,338.155839 628.808383,336.957937 629.846191,336.114883 C630.88168,335.274149 632.194304,334.900746 633.510408,335.022508 C634.836947,335.160504 636.031296,335.805261 636.876617,336.843134 C637.719619,337.881006 638.109232,339.180956 637.973563,340.508737 C637.837894,341.837678 637.190858,343.032101 636.156529,343.876315 C635.25323,344.611523 634.16556,345 633.009477,345" id="Fill-327" fill="#070707"></path>
                <path d="M646.812128,345.945527 C649.632616,344.918867 651.683778,339.531972 648.350779,339.276145 C645.018896,339.019201 643.735943,342.610836 643.735943,342.610836 C643.735943,342.610836 646.55643,332.606763 642.966617,331.067331 C639.37792,329.527899 633,330.106583 633,330.106583 L633.259047,349.973968 C633.299244,353.047246 635.816022,355.510561 638.88774,355.481515 L638.705738,368.914119 L645.462179,375.924232 C648.225721,378.793072 652.128178,380.273295 656.097629,379.958259 C660.525996,379.608591 664.488748,377.071545 666.660502,373.195036 L672,363.673571 C672,363.673571 671.3334,361.370009 670.298328,357.865512 C647.330222,362.562008 646.812128,345.945527 646.812128,345.945527" id="Fill-328" fill="#FFC3A9"></path>
                <polygon id="Fill-329" fill="#EDA68E" points="639.079696 356 639 362 645 356"></polygon>
                <polygon id="Fill-330" fill="#070707" points="629.016518 339.872 629 339.078 646 339 645.304055 339.825"></polygon>
                <polygon id="Fill-331" fill="#070707" points="628.03385 341 628 339.093489 647 339 645.489162 340.944352"></polygon>
                <polygon id="Fill-332" fill="#ACEBFC" points="498 385 514.82205 472 521 472 504.17795 385"></polygon>
                <path d="M610.864649,387.35918 C610.603831,385.990151 609.403626,385 608.005598,385 L504,385 L520.584046,472 L627,472 L610.864649,387.35918 Z" id="Fill-333" fill="#C2EFFF"></path>
                <polyline id="Fill-334" fill="#ACEBFC" points="515.259858 467 639.460375 467 642 472 514 472"></polyline>
                <polygon id="Fill-335" fill="#FFFFFF" points="619 464 604.302269 390 510 390 524.696629 464"></polygon>
                <polygon id="Fill-336" fill="#BEDEFC" points="599.788765 395 517 395 518.211235 401 601 401"></polygon>
                <path d="M522.968871,398 C523.105236,398.552788 522.780687,399 522.2475,399 C521.711586,399 521.167489,398.552788 521.031124,398 C520.894759,397.447212 521.219308,397 521.753859,397 C522.288409,397 522.832506,397.447212 522.968871,398" id="Fill-337" fill="#FFFFFF"></path>
                <path d="M525.968871,398 C526.105236,398.552788 525.780687,399 525.2475,399 C524.711586,399 524.167489,398.552788 524.031124,398 C523.894759,397.447212 524.219308,397 524.753859,397 C525.289773,397 525.832506,397.447212 525.968871,398" id="Fill-338" fill="#FFFFFF"></path>
                <path d="M563.968871,388 C564.105236,388.552788 563.780687,389 563.2475,389 C562.711586,389 562.167489,388.552788 562.031124,388 C561.894759,387.447212 562.219308,387 562.753859,387 C563.289773,387 563.832506,387.447212 563.968871,388" id="Fill-339" fill="#FFFFFF"></path>
                <path d="M529.968871,398 C530.105236,398.552788 529.780687,399 529.2475,399 C528.711586,399 528.167489,398.552788 528.031124,398 C527.894759,397.447212 528.219308,397 528.753859,397 C529.289773,397 529.832506,397.447212 529.968871,398" id="Fill-340" fill="#FFFFFF"></path>
                <polygon id="Fill-341" fill="#CDE0FF" points="548 459 530.33225 459 518 401 535.66775 401"></polygon>
                <polygon id="Fill-342" fill="#C3D3FF" points="524.463365 410 534 410 533.536635 408 524 408"></polygon>
                <polygon id="Fill-343" fill="#C3D3FF" points="534.536583 414 525 414 525.462276 416 535 416"></polygon>
                <polygon id="Fill-344" fill="#C3D3FF" points="535.537724 420 526 420 526.463417 422 536 422"></polygon>
                <polygon id="Fill-345" fill="#C3D3FF" points="537.536635 427 528 427 528.463365 429 538 429"></polygon>
                <polygon id="Fill-346" fill="#C3D3FF" points="538.536583 433 529 433 529.462276 435 539 435"></polygon>
                <polygon id="Fill-347" fill="#C3D3FF" points="540.537724 439 531 439 531.463417 441 541 441"></polygon>
                <polygon id="Fill-348" fill="#3C4BB4" points="516 467.918 588 467.918 588 467 516 467"></polygon>
                <polygon id="Fill-349" fill="#3C4BB4" points="519.034011 468 504 389.194326 504.967062 389 520 467.805674"></polygon>
                <path d="M656.246594,368.450538 C664.600206,367.21437 668.92448,363.608608 671,361.059483 L670.51319,361 L640.301382,366.867204 C640.301382,366.867204 639.456044,367.151642 638,367.702132 C641.044754,368.493799 647.649578,369.722397 656.246594,368.450538" id="Fill-350" fill="#FFC3A9"></path>
                <path d="M759.472408,452.336277 L731.238535,388.125612 C725.572727,375.240447 713.599281,366.261424 699.667147,364.450314 L671.478645,361 C669.383845,363.614076 665.019403,367.311712 656.588193,368.579378 C647.912424,369.883644 641.245141,368.623741 638.17321,367.811902 C630.122672,370.902878 603.466816,382.253091 595.943021,399.55346 C589.237006,414.973957 583.561238,443.214184 581.234052,455.830954 C580.490415,459.861311 581.538368,464.003684 584.099047,467.200021 C586.768174,470.530556 590.799529,472.468099 595.061058,472.468099 L629.066973,472.468099 L636.662697,522.235357 C636.662697,522.235357 651.825373,536.083194 682.376473,537.743471 C732.742409,540.480653 741.844219,520.410939 741.844219,520.410939 L734.937909,472.400446 L744.377234,472.400446 C753.908407,472.400446 761.941239,463.720871 759.585281,452.683416 C759.559829,452.564745 759.521098,452.447184 759.472408,452.336277" id="Fill-351" fill="#F7734A"></path>
                <polygon id="Fill-352" fill="#FFFFFF" points="628.03906 472 617 415.198184 617.962007 415 629 471.801816"></polygon>
                <polygon id="Fill-353" fill="#000000" points="734.961054 472 724 406.162311 725.040092 406 736 471.837689"></polygon>
                <polygon id="Fill-354" fill="#3C4BB4" points="513.979381 473 497 385.192312 498.020619 385 515 472.8088"></polygon>
                <polygon id="Fill-355" fill="#3C4BB4" points="504 384.918 609 384.918 609 384 504 384"></polygon>
                <polyline id="Fill-356" fill="#182646" points="879.251559 554.079164 892 676 853.923437 675.155028 834 548"></polyline>
                <path d="M933.685033,492 C933.685033,492 946.781609,534.994799 920.912021,551.155965 C891.56523,569.488216 828.174434,559.956732 828.174434,559.956732 L816.215872,676 L780,676 L783.890522,553.67744 C784.205221,543.780042 790.446012,535.048023 799.704147,531.552998 L859.04818,509.143587" id="Fill-357" fill="#182646"></path>
                <path d="M853.593026,675.210169 L853.561196,675 L844.91877,680.398855 C842.461266,681.933314 840.972933,684.686979 841.000373,687.644032 C841.008056,688.399962 841.608438,689.00561 842.342726,688.999961 L887.004771,688.593182 C889.051777,688.575103 890.716822,686.890362 890.771701,684.784153 L891,676.064404 L853.593026,675.210169 Z" id="Fill-358" fill="#5CA8C9"></path>
                <path d="M779.357169,675 L768.916661,680.321802 C766.4602,681.870005 764.972933,684.648332 765.000373,687.631871 C765.008057,688.395711 765.608452,689.006783 766.341658,688.999943 L811.004684,688.589521 C813.051735,688.57128 814.717913,686.87259 814.772794,684.746377 L815,675.94853 L779.357169,675 Z" id="Fill-359" fill="#5CA8C9"></path>
                <path d="M838.460392,346 C838.460392,346 836.24609,354.816844 836.004377,356.403722 C835.846738,357.436574 840,356.813987 840,356.813987" id="Fill-360" fill="#BF4F49"></path>
                <path d="M863,348.442501 C863,348.442501 863.259951,345.058047 865.892096,344.115082 C868.525329,343.171053 871.875331,348.264764 864.597777,351" id="Fill-361" fill="#BF4F49"></path>
                <path d="M784,396.879428 C784,396.879428 781.028605,382.464366 782.182427,377.583807 C783.336248,372.702133 778.318286,375.866905 778.192173,381.065615 C778.064954,386.264325 776.577044,382.914243 776.190962,381.300042 C775.807092,379.685841 771.052418,368.983665 770.287998,367.764642 C769.52579,366.544502 767.207084,366.811303 767.459309,368.374154 C767.459309,368.374154 766.408369,367.005543 765.033297,367.40407 C763.659331,367.801481 764.587477,370.510793 764.587477,370.510793 C764.587477,370.510793 762.613923,369.559687 762.290897,371.326824 C761.968977,373.092845 762.543122,373.95018 762.543122,373.95018 C762.543122,373.95018 760.735505,374.181259 761.033087,375.975188 C761.331776,377.768 761.769852,385.997524 763.982357,390.651469 C767.78676,398.654379 770.732711,400.422633 773.238374,407" id="Fill-362" fill="#BF4F49"></path>
                <path d="M877,371.032871 L876.556554,370.978695 L872.328374,371.812342 L866.882372,347.426489 L868.158658,341.981244 L862.767811,329 L836,333.153865 L839.158174,357.876937 C839.96123,364.150302 845.821997,368.485491 852.039066,367.403076 L853.479714,375.531694 L848.992305,376.417306 C848.992305,376.417306 848.221239,376.680447 846.893107,377.190144 C848.386704,377.584855 850.824553,378.093447 853.96949,378.299094 L854.059944,378.80658 C855.116713,384.771473 861.776125,387.859508 866.995991,384.804642 L868.791837,383.753185 C871.979794,381.887981 873.617897,378.215066 872.92846,374.599645 C874.819172,373.408877 876.129655,372.117497 877,371.032871" id="Fill-363" fill="#BF4F49"></path>
                <path d="M957.589038,454.747499 L931.962692,396.529821 C926.833225,384.878764 915.994284,376.758197 903.382181,375.120147 L877.862999,372 C875.964996,374.36472 872.015428,377.708288 864.382542,378.854148 C856.527597,380.034296 850.493319,378.893966 847.710393,378.159553 C845.747209,378.913875 842.559935,380.213475 838.818064,382.016325 C829.712514,386.402892 822.866228,394.425021 819.845775,404.07967 L811.167773,431.823652 L784.484158,393.286903 L767,401.730435 L792.831833,458.873039 C796.712905,467.455933 805.251706,472.970663 814.662174,472.970663 L815.659785,472.970663 C822.729236,472.970663 829.437426,469.844985 833.990201,464.430905 L837.934245,459.741283 L849.353192,516.574195 C849.353192,516.574195 858.554858,522.562312 894.900828,524.865093 C918.715344,526.373736 940.90805,514.731527 940.90805,514.731527 L935.311263,472.741712 L943.856693,472.741712 C952.532486,472.741712 959.836149,464.805854 957.589038,454.747499" id="Fill-364" fill="#5CA8C9"></path>
                <polygon id="Fill-365" fill="#FFFFFF" points="839.969413 472 831 422.174561 832.030587 422 841 471.824327"></polygon>
                <polygon id="Fill-366" fill="#000000" points="934.958064 472 925 412.162683 926.041936 412 936 471.837317"></polygon>
                <path d="M863.142123,322.265136 C855.911634,321.37805 849.360012,327.008013 845.096506,324.413977 C842.699327,322.956071 843.111098,319 843.111098,319 L836.379187,325.186458 L834.574069,321.276669 C830.67448,324.773219 826.749294,336.121302 834.26691,340.11484 C837.334053,341.743551 841.936993,340.755085 846.059161,339.91869 C846.465368,342.092876 847.538201,344.377259 850.232523,344.725481 L850.232523,350.233126 L853.013652,349.773604 C853.013652,349.773604 852.782169,344.725481 856.026262,344.037852 C859.270356,343.349121 858.574795,350.002814 855.562185,351.609486 C855.562185,351.609486 860.113931,365.311376 867.613741,361.24621 C877.346021,355.968878 876.03169,323.846462 863.142123,322.265136" id="Fill-367" fill="#000000"></path>
                <path d="M840.997269,348.977606 L841.022394,348.997269 C841.020209,348.98416 841.010378,348.975421 840.997269,348.977606 M841.130539,349.991351 C840.584351,350.063449 840.080765,349.67674 840.008668,349.131634 C839.936571,348.585435 840.32218,348.080747 840.869461,348.008648 C841.415649,347.93655 841.919235,348.323259 841.991332,348.869458 C842.063429,349.414565 841.67782,349.919253 841.130539,349.991351" id="Fill-368" fill="#070707"></path>
                <polygon id="Fill-369" fill="#C2EFFF" points="541 693 546.82197 693 568 554 556.249616 554"></polygon>
                <polygon id="Fill-370" fill="#C2EFFF" points="948.177789 693 954 693 938.749751 554 927 554"></polygon>
                <polygon id="Fill-371" fill="#3C4BB4" points="467 564 1027 564 1027 553 467 553"></polygon>
                <polygon id="Fill-372" fill="#182646" points="780 675.338807 815.66645 676 817 664.093049 780.436514 662"></polygon>
                <polygon id="Fill-373" fill="#182646" points="854.120397 674.248964 872.208528 674.64221 892 675 890.566647 661.58987 852 661"></polygon>
                <path d="M194.033548,581.319854 L241.768555,581 C241.768555,581 242.814195,607.033935 240.460398,612.501238 C238.107708,617.968541 237.458614,619.337297 230.723985,621.777013 C223.989356,624.21673 192.837265,606.369962 194.033548,581.319854" id="Fill-374" fill="#FFFFFF"></path>
                <path d="M194.238524,544.970232 C194.238524,544.970232 181.290788,546.041711 173.737293,535.328021 C166.18491,524.613228 163.216632,528.630999 159.710486,522.738415 C156.203229,516.84583 154.855224,503.45289 163.486678,496.756972 C172.119243,490.05995 185.335914,496.488826 187.7641,506.13214 C190.191176,515.774351 192.080383,519.523977 195.048661,525.416561 C198.014716,531.310249 200.172857,538.809501 194.238524,544.970232" id="Fill-375" fill="#35C28C"></path>
                <path d="M238.408673,558.271032 C238.408673,558.271032 235.198579,550.24496 242.423496,541.148672 C244.831067,537.671295 242.690269,531.517826 246.168239,524.828698 C249.647312,518.140672 260.350199,510.382429 272.124588,513.859806 C283.897874,517.338285 284.968273,538.740409 269.181266,546.499754 C253.394259,554.257996 257.186404,557.054226 252.857406,559.876908 C246.70399,563.889944 238.943322,563.354284 236,562.016238 L238.408673,558.271032 Z" id="Fill-376" fill="#35C28C"></path>
                <path d="M192.25231,580.390826 C191.952242,588.888787 191.65107,597.795389 193.054331,606.212067 C194.136562,612.708019 197.181372,619.1071 203.385724,621.959796 C203.853477,622.173581 204.261658,621.475439 203.791698,621.259427 C196.777604,618.035947 194.22923,610.435438 193.464718,603.214621 C192.664904,595.67424 192.787358,587.956817 193.056537,580.390826 C193.074188,579.869725 192.271064,579.869725 192.25231,580.390826" id="Fill-377" fill="#182646"></path>
                <path d="M194.385984,580.728 L239.614427,580.728 C240.127975,580.728 240.129073,580 239.614427,580 L194.385984,580 C193.871339,580 193.871339,580.728 194.385984,580.728" id="Fill-378" fill="#182646"></path>
                <path d="M241.121897,582.393191 C241.116393,590.025629 241.196758,597.664773 241.098779,605.297211 C241.011808,612.159474 238.172609,620.346347 230.3827,621.182473 C229.875189,621.237246 229.869685,622.052132 230.3827,621.997359 C236.414485,621.349027 240.53292,615.937687 241.546842,610.128405 C242.270127,605.983549 241.910136,601.598362 241.912338,597.407676 C241.916741,592.40322 241.920044,587.398765 241.924447,582.393191 C241.924447,581.868936 241.121897,581.868936 241.121897,582.393191" id="Fill-379" fill="#182646"></path>
                <path d="M190.386909,622.729 L260.613503,622.729 C261.128282,622.729 261.129382,622 260.613503,622 L190.386909,622 C189.87103,622 189.87103,622.729 190.386909,622.729" id="Fill-380" fill="#182646"></path>
                <path d="M197.388418,586.729 L236.612409,586.729 C237.128645,586.729 237.129748,586 236.612409,586 L197.388418,586 C196.871079,586 196.869976,586.729 197.388418,586.729" id="Fill-381" fill="#182646"></path>
                <path d="M189.05907,554.59348 C194.206823,563.152624 199.598862,571.562819 205.231854,579.819683 C205.520554,580.242438 206.222319,579.844873 205.930287,579.416642 C200.297295,571.160873 194.905257,562.750679 189.757503,554.191534 C189.493231,553.75016 188.793688,554.151011 189.05907,554.59348" id="Fill-382" fill="#182646"></path>
                <path d="M188.615881,554.000379 L152.3833,555.317273 C151.873875,555.335082 151.870595,556.018367 152.3833,555.999621 L188.615881,554.682727 C189.126399,554.663981 189.129678,553.981633 188.615881,554.000379" id="Fill-383" fill="#182646"></path>
                <path d="M152.0326,555.516304 C155.147689,562.870984 162.111547,568.599788 170.540548,567.949657 C178.741589,567.317008 184.275715,560.539252 188.920131,554.56897 C189.235513,554.162502 188.53614,553.765867 188.224077,554.166872 C184.06214,559.516525 179.225175,565.597165 172.117459,566.942227 C163.567838,568.560453 155.984282,562.799961 152.809436,555.304329 C152.61246,554.838857 151.832304,555.043184 152.0326,555.516304" id="Fill-384" fill="#182646"></path>
                <path d="M171.044553,501.610543 C184.194546,528.67839 198.61156,555.109009 214.248382,580.809793 C214.516278,581.249679 215.207979,580.847277 214.938984,580.405187 C199.302162,554.704403 184.884051,528.273783 171.735155,501.204834 C171.50898,500.740694 170.819475,501.147505 171.044553,501.610543" id="Fill-385" fill="#182646"></path>
                <path d="M194.341097,542.731872 C189.653452,543.118026 184.550094,543.07182 180.477661,540.425948 C176.955798,538.137626 174.985338,534.334391 172.358429,531.202251 C169.864148,528.227432 166.595279,526.604704 163.513649,524.338385 C159.04222,521.051123 157.955569,516.097126 157.925477,510.844988 C157.900958,506.190233 158.79034,501.133922 162.258706,497.70914 C165.588873,494.419678 170.648765,493.209508 175.206012,494.07973 C179.593852,494.916948 183.396573,497.841159 185.857419,501.447466 C188.664879,505.562045 189.023752,510.412627 190.527231,515.013474 C193.313515,523.541873 203.173618,534.658937 195.317411,543.305053 C194.968568,543.689007 195.541428,544.256686 195.891385,543.871632 C202.921738,536.133144 196.318244,526.118436 192.797496,518.504265 C190.397948,513.311535 190.217396,507.353097 187.379845,502.362795 C185.299048,498.70478 182.012347,495.628748 178.035762,494.07863 C169.729292,490.840875 160.423102,495.141379 157.981203,503.644475 C156.673878,508.194715 156.638214,513.769199 158.083738,518.290835 C159.567156,522.931287 163.227219,525.073289 167.097925,527.63995 C172.04748,530.922811 174.224125,536.374078 178.66992,540.086 C183.032127,543.725312 188.907843,543.980548 194.341097,543.532785 C194.858231,543.489879 194.862689,542.688966 194.341097,542.731872" id="Fill-386" fill="#182646"></path>
                <path d="M217.784432,580.610269 C218.509478,548.508873 219.915399,516.427419 221.998963,484.388069 C222.032361,483.869536 221.248061,483.871752 221.214664,484.388069 C219.130022,516.427419 217.725179,548.508873 217.000133,580.610269 C216.988282,581.12991 217.772582,581.12991 217.784432,580.610269" id="Fill-387" fill="#182646"></path>
                <path d="M221.715646,470.336473 C214.988348,468.936133 208.191697,472.023523 203.96763,477.426733 C199.203906,483.520704 198.264382,491.867395 199.484571,499.349529 C200.295141,504.321013 202.34649,509.032355 202.659665,514.093506 C202.949,518.773852 201.894608,523.467482 202.798372,528.11794 C204.280805,535.74841 209.985138,541.601057 215.983139,545.927168 C216.39926,546.226054 216.793709,545.527545 216.381922,545.230872 C210.451107,540.953469 204.780368,535.098608 203.482155,527.504669 C202.750692,523.223945 203.652288,518.902263 203.478904,514.601613 C203.32611,510.823462 202.182859,507.231285 201.231415,503.607006 C199.238583,496.023029 198.96442,487.611025 202.847137,480.566152 C206.507705,473.926436 214.017398,469.55494 221.506502,471.113579 C222.00173,471.216529 222.214125,470.439423 221.715646,470.336473" id="Fill-388" fill="#182646"></path>
                <path d="M221.601332,471.778015 C228.171445,472.769844 233.31227,477.461497 236.05119,483.400367 C239.254463,490.347579 238.540917,498.347165 236.226832,505.445188 C234.035696,512.164533 229.441557,518.048362 228.181325,525.050615 C226.992447,531.659878 227.725753,541.045385 220.263159,544.194802 C219.796609,544.390746 220.001891,545.166818 220.477223,544.967571 C226.84864,542.277191 227.780641,535.082297 228.46345,528.992616 C229.046362,523.800095 230.595306,519.647839 232.977453,515.028841 C234.83377,511.429192 236.460655,507.719462 237.558419,503.810486 C239.544272,496.741084 239.759434,488.991381 236.405767,482.299557 C233.507672,476.512598 228.303177,471.984967 221.8132,471.005246 C221.310425,470.92929 221.093068,471.702059 221.601332,471.778015" id="Fill-389" fill="#182646"></path>
                <path d="M220.664139,579.867212 C237.075137,560.477686 253.488324,541.08816 269.899322,521.698635 C270.229994,521.308271 269.668289,520.73977 269.335426,521.132332 C252.923334,540.521858 236.512336,559.911384 220.100244,579.30091 C219.770666,579.691273 220.331277,580.260874 220.664139,579.867212" id="Fill-390" fill="#182646"></path>
                <path d="M238.926463,557.805018 C236.585666,552.455332 238.160667,547.703727 241.438674,543.229685 C244.061079,539.650011 244.14456,536.225639 244.608712,531.974087 C245.62161,522.706585 253.267324,515.324746 262.313286,513.319026 C267.433432,512.183443 273.150186,512.876248 276.94132,516.756615 C280.055704,519.944178 281.474875,524.580132 281.143179,528.955045 C280.360687,539.317376 271.506174,544.793727 263.499824,549.71936 C261.600918,550.886884 259.735404,552.149132 258.129236,553.697755 C256.194711,555.560287 254.773314,557.851279 252.504867,559.371263 C248.157196,562.283466 242.561767,562.367176 237.509518,562.100628 C236.988599,562.073092 236.989712,562.87604 237.509518,562.902475 C242.098727,563.144791 246.994032,563.074299 251.212587,561.034435 C253.432059,559.961634 255.053809,558.379969 256.636602,556.536161 C258.755897,554.063432 261.121182,552.126002 263.908322,550.411063 C272.117252,545.36207 280.882719,539.842762 281.916766,529.330635 C282.823922,520.088466 276.223386,511.919098 266.63647,512.000605 C257.666197,512.076604 248.714846,517.958285 245.236486,526.145275 C244.191309,528.604787 243.848482,531.119371 243.657033,533.758417 C243.377651,537.621161 242.542844,540.349424 240.239892,543.487422 C236.955207,547.959261 235.957892,553.022573 238.226339,558.210347 C238.434484,558.681763 239.132382,558.274231 238.926463,557.805018" id="Fill-391" fill="#182646"></path>
                <path d="M228.608238,579.950376 C236.016936,576.096043 243.098178,571.696575 249.827626,566.765134 C250.239159,566.4635 249.837582,565.770291 249.419412,566.076312 C242.689964,571.006656 235.610935,575.406124 228.202237,579.260457 C227.742028,579.49957 228.149136,580.189489 228.608238,579.950376" id="Fill-392" fill="#182646"></path>
                <path d="M249.099001,566.691476 C254.030933,572.508332 261.585806,578.577906 269.736296,574.858719 C272.74778,573.484497 274.664887,573.834831 277.728697,574.710125 C279.427597,575.194954 281.085305,575.523596 282.820944,575.002975 C286.670745,573.847847 288.498789,570.000674 289.962782,566.690391 C290.16763,566.22834 289.469589,565.825943 289.262514,566.291248 C287.509062,570.258815 284.92954,575.252439 279.595706,574.373891 C276.665493,573.891232 274.209547,572.253445 271.194723,573.301195 C269.118413,574.022472 267.628814,575.049614 265.31537,575.173261 C262.991907,575.299078 260.672897,574.733987 258.593248,573.745892 C254.978353,572.031096 252.195096,569.10911 249.673465,566.132893 C249.340588,565.741342 248.769463,566.302095 249.099001,566.691476" id="Fill-393" fill="#182646"></path>
                <path d="M250.386921,567.728 L288.612666,567.728 C289.128561,567.728 289.129661,567 288.612666,567 L250.386921,567 C249.871026,567 249.871026,567.728 250.386921,567.728" id="Fill-394" fill="#182646"></path>
                <path d="M845.669764,362 C844.572909,362 843.587563,361.66636 843,361.34375 L843.633667,360.494485 C843.736598,360.551471 846.21015,361.855699 848.117584,360 L849,360.667279 C847.969621,361.669118 846.764475,362 845.669764,362" id="Fill-395" fill="#070707"></path>
                <path d="M495.097757,191.003017 L374.321583,200.402074 C373.809563,200.442056 373.382329,200.868528 373.366914,201.354974 L372.000426,247.270749 C371.98501,247.758305 372.390222,248.119252 372.902242,248.080381 L397.635564,246.15459 C398.036371,246.123493 398.383223,246.338951 398.49884,246.688792 L401.731724,256.463233 C401.987184,257.238436 403.173088,257.15403 403.489109,256.338845 L407.50709,245.975783 C407.648033,245.611504 408.005897,245.348291 408.401198,245.317194 L493.678416,238.680213 C494.191537,238.641342 494.618771,238.213759 494.633085,237.727314 L495.999573,191.811538 C496.014989,191.325093 495.610878,190.963035 495.097757,191.003017" id="Fill-396" fill="#F9D671"></path>
                <path d="M467.143618,207.519673 L393.809871,212.997265 C393.349188,213.032646 392.987065,212.720651 393.000354,212.301442 C393.013643,211.882233 393.396807,211.51556 393.856382,211.480179 L467.190129,206.002587 C467.650812,205.968278 468.012935,206.279201 467.999646,206.698409 C467.987464,207.117618 467.603193,207.485364 467.143618,207.519673" id="Fill-397" fill="#FFFFFF"></path>
                <path d="M467.143618,217.519673 L393.809871,222.997265 C393.349188,223.032646 392.987065,222.720651 393.000354,222.301442 C393.013643,221.882233 393.396807,221.51556 393.857489,221.480179 L467.191237,216.002587 C467.650812,215.968278 468.012935,216.279201 467.999646,216.698409 C467.987464,217.117618 467.604301,217.485364 467.143618,217.519673" id="Fill-398" fill="#FFFFFF"></path>
                <path d="M443.14205,229.460165 L393.810306,232.997662 C393.350483,233.029578 392.987057,232.731012 393.000354,232.328462 C393.01365,231.925912 393.39702,231.57278 393.85795,231.539835 L443.189694,228.002338 C443.649517,227.970422 444.012943,228.268988 443.999646,228.671538 C443.987458,229.074088 443.60298,229.42722 443.14205,229.460165" id="Fill-399" fill="#FFFFFF"></path>
            </g>
        </g>
    </g>
</svg>