<svg xmlns="http://www.w3.org/2000/svg" xmlns:xlink="http://www.w3.org/1999/xlink" width="1366" height="738"><style><![CDATA[.B{fill:#fff}.C{fill:#182646}.D{fill:#ffc3a9}.E{fill:#000}.F{fill:#070707}.G{fill:#9654de}.H{fill:#3c4bb4}.I{fill:#c2efff}.J{fill:#acebfc}.K{fill:#5ca8c9}]]></style><defs><path id="A" d="M.013.994h34.702v7.957H.013z"/><path id="B" d="M.048.192H53.94V227H.048z"/><path id="C" d="M778.97 398c.136.553-.188 1-.723 1s-1.08-.447-1.215-1 .188-1 .72-1 1.08.447 1.216 1"/><path id="D" d="M522.97 398c.136.553-.188 1-.72 1s-1.08-.447-1.216-1 .188-1 .723-1 1.08.447 1.215 1"/></defs><g transform="translate(-8 -1)" fill="none" fill-rule="evenodd"><path d="M1039 334.094s8.037-88.614 14.468-106.337 51.442-48.335 59.48-75.724 33.988-51.064 65.22-48.894 63.385 40.838 93.93 50.505 61.09 0 75.556 30.612 19.29 183.672 19.29 219.117S1380.98 569.23 1382 587l-205-125.185-2.497-126.683L1039 334.094z" fill="#e9f9ff"/><g class="B"><path d="M108 109.2s7.422 10.065 19.703 9.796S147 109.602 147 109.602L136.61 99 108 109.2z"/><path d="M129.32 82S98.424 95.645 78 117.212l1.002.788s23.003-9.11 48.028-9.11 44.23 9.102 44.23 9.102l.74-1.64S150.747 89.192 129.32 82"/></g><g fill="#ddd"><path d="M125.005 9.302c-.107 24.58 1.4 48.927 3.4 73.398.033.398.616.402.583 0-2.02-24.47-3.518-48.816-3.4-73.398.001-.403-.582-.403-.584 0m-.464 73.736c-16.962 8.928-33.243 19.205-46.443 33.416-.275.296.165.745.44.448 13.164-14.173 29.405-24.417 46.316-33.317.356-.188.04-.734-.314-.547m4.694-.418c9.194 2.1 16.9 8.35 23.928 14.475 6.753 5.892 12.923 12.516 18.252 19.77.238.323.778.007.537-.32-5.67-7.72-12.27-14.75-19.54-20.924-6.836-5.806-14.17-11.6-23.013-13.6-.4-.1-.556.52-.165.6m-50.844 35.36c29.5-10.9 62.817-11.37 92.245-.01.375.145.538-.46.167-.603-29.52-11.397-62.995-10.916-92.578.01-.374.137-.213.743.166.603"/><path d="M89.392 106.993a195.19 195.19 0 0 1 57.309-2.311c.4.043.396-.522 0-.565a195.8 195.8 0 0 0-57.476 2.331c-.395.075-.228.62.166.545m20.7 5.567c9.065 9.493 24.213 9.958 33.807 1.065.303-.28-.142-.744-.444-.464-9.34 8.656-24.104 8.166-32.92-1.067-.285-.3-.728.166-.442.465M331.3 9.303L329 141.697c-.008.404.702.404.7 0L332 9.303c.008-.404-.702-.404-.7 0"/><path d="M329.473 141.105c-4.237 5.003-9.7 8.792-14.814 12.795-4.234 3.3-9.023 6.76-11.62 11.62-.193.36.353.683.546.32 2.923-5.47 8.752-9.345 13.518-13.038 4.487-3.477 9.12-6.886 12.816-11.248.262-.3-.182-.763-.447-.45m28.446 22.343c-7.748-8.975-17.97-14.55-27.46-21.388-.332-.24-.648.3-.32.548 9.437 6.8 19.624 12.36 27.333 21.3.267.3.713-.142.447-.45"/><path d="M303.4 166c17.76-4.57 36.073-5.568 54.217-2.935.394.058.564-.547.167-.605-18.257-2.65-36.686-1.663-54.55 2.935-.4.1-.226.705.166.605m4-5.995c12.34-2.073 24.782-3.205 37.3-3.404.4-.006.4-.598 0-.6a249.9 249.9 0 0 0-37.476 3.424c-.394.066-.227.636.165.57m12.74 3.65c7 4.873 16.254 4.4 22.76-1.126.304-.26-.135-.697-.437-.44-6.316 5.353-15.23 5.74-22 1.03-.328-.23-.638.3-.312.537M231 9.302v360.395c0 .404.565.404.565 0V9.302c0-.403-.565-.403-.565 0"/><path d="M1178.3 103.302V454.24c0 1.7-.77 5.965.154 7.365.162.244.663.35.883.545 1.856 1.64 4.54 2.8 6.64 4.098l188.2 116.157c2.032 1.254 4.248 3.143 6.486 4.003.304.117.602.37.884.545.342.212.655-.33.314-.54L1182.767 463.53c-.922-.57-3.38-1.5-3.963-2.446-.18-.295.108-2.033.12-2.42v-355.36c0-.402-.623-.402-.623 0m-1134.01 119c-1.197 47.367-2.957 94.76-2.034 142.143.234 12.092.66 24.184 1.553 36.254.03.4.74.402.7 0-3.5-47.23-1.73-94.82-.5-142.094l.97-36.303c.01-.403-.698-.403-.708 0m4 1c-1.197 47.368-2.957 94.76-2.034 142.143.234 12.1.66 24.184 1.553 36.253.03.4.738.403.7 0-3.5-47.23-1.732-94.82-.5-142.094l.97-36.303c.01-.403-.698-.403-.708 0m4.917.318c25.872 10.107 51.328 21.23 76.316 33.345.36.174.676-.36.315-.535a1056.06 1056.06 0 0 0-76.466-33.407c-.372-.147-.535.453-.165.598m81.218 36.764L134 381.614c0 .514.566.515.566 0l.427-121.23c0-.513-.565-.514-.565 0m-4 .001L130 381.614c0 .514.566.515.566 0l.427-121.23c0-.513-.565-.514-.565 0m1081.002-51.08c-.012 59.497-1.488 118.986-4.43 178.394-.02.404.55.403.57 0a3618.67 3618.67 0 0 0 4.43-178.394c0-.404-.57-.405-.57 0m6.93-11L1211 388.697c-.016.404.625.404.64 0l7.36-190.395c.016-.404-.624-.402-.64 0"/><path d="M1210.4 204c7.582-1.9 15.568-2.452 23.348-3.02 10.4-.76 20.83-1.134 31.258-1.285 10.42-.15 20.85-.08 31.26.395 7.762.356 15.772.68 23.354 2.47.392.093.56-.497.166-.6-7.323-1.73-15.055-2.08-22.55-2.446-10.73-.52-21.488-.596-32.23-.44-10.75.156-21.508.544-32.23 1.357-7.507.568-15.226 1.135-22.543 2.97-.4.097-.226.688.166.6m-1.177 188.602c35.248 8.53 70.655 17.076 106.386 23.4.393.07.56-.523.166-.593-35.733-6.316-71.138-14.86-106.387-23.4-.4-.095-.555.5-.165.593m-1064.444-12c-35.247 8.53-70.654 17.075-106.387 23.4-.392.07-.56-.523-.166-.593 35.733-6.316 71.14-14.86 106.388-23.4.4-.095.555.498.165.593m1129.64-157.453l-37.37 63.384c-.204.347.334.662.538.315l37.37-63.384c.205-.347-.333-.66-.538-.315"/><path d="M1267.418 272.153l-27.377 49.38c-.194.35.347.666.54.315l27.376-49.38c.195-.352-.344-.666-.54-.315M1178.997 462L294 458.594V458l885 3.405zm-115.694-213.435h105.394c.404 0 .405-.565 0-.565h-105.394c-.404 0-.404.565 0 .565m-6 6.435l108.395-1.4c.404-.003.404-.593 0-.6l-108.395 1.4c-.403.003-.404.592 0 .6M1.382 538.983l76.1-24.563 132.02-42.708 46.27-15.094c.38-.125.217-.727-.166-.6L153.37 489.245 1.214 538.385c-.38.122-.22.723.166.6"/></g><path d="M1178.22 363s10.713 40.54 8.928 55.685 19.643 35.64 22.32 45.44S1255 506 1255 506l-78.12-44.77-48.88-.223s23.213-10.246 31.693-16.26 8.036-22.273 11.16-32.297.223-25.615 1.117-33.41 6.25-16.037 6.25-16.037" fill="#f8fdff" style="mix-blend-mode:multiply"/><g fill="#ddd"><path d="M1088 204.303v42.393c0 .406.565.406.565 0v-42.393c0-.404-.565-.404-.565 0"/><path d="M1087.39 204.986c5.046-1.518 10.08-1.728 15.217-.62.396.085.565-.565.168-.65a30.71 30.71 0 0 0-15.551.622c-.4.117-.225.767.167.65"/><path d="M1101 203.304l1.37 44.392c.01.405.643.406.63 0l-1.37-44.392c-.012-.405-.644-.407-.63 0m-10.4 20.556a35.71 35.71 0 0 1 9.273-9.275c.325-.223.016-.758-.312-.532a36.58 36.58 0 0 0-9.495 9.495c-.226.33.3.637.535.312"/><path d="M1089.562 231.84c2.8-5.604 6.616-10.408 11.332-14.3.308-.254-.125-.708-.43-.456-4.758 3.938-8.592 8.787-11.425 14.44-.184.366.34.692.524.325m11.747-20.013a56.14 56.14 0 0 0 16.459-1.135c.407-.1.235-.77-.17-.683-5.404 1.178-10.797 1.54-16.288 1.1-.413-.033-.4.675 0 .707m14.69.475a809.29 809.29 0 0 1 2.436 35.4c.02.4.58.403.562 0a808.64 808.64 0 0 0-2.437-35.4c-.036-.396-.598-.4-.56 0m-8.313 14.06c-1.305 2.73-2.733 6.25-.6 8.953 1.513 1.908 4.33 2.434 5.934.345 2.394-3.118.2-13.475-4.962-9.924-.323.223-.016.752.3.527 4.512-3.107 5.932 5.98 4.437 8.603-1.64 2.88-5.206 1.2-6-1.375-.717-2.306.437-4.782 1.4-6.82.17-.354-.362-.663-.53-.308"/><path d="M1115.003 200.293l2.282 17.414c.05.388.765.392.713 0l-2.282-17.414c-.052-.4-.765-.393-.713 0m1.3-.193a49.72 49.72 0 0 1 17.3.882c.4.1.568-.613.168-.704-5.797-1.322-11.587-1.63-17.47-.9-.4.05-.405.78 0 .73"/><path d="M1132.06 201.304c-.233 15.814.208 31.62 1.32 47.394.028.402.648.405.618 0a557.33 557.33 0 0 1-1.32-47.394c.007-.405-.612-.405-.618 0m-14.46 14.563a50.5 50.5 0 0 1 10.268-10.269c.318-.238.007-.778-.315-.537a51.56 51.56 0 0 0-10.492 10.49c-.24.322.302.633.54.315"/><path d="M1117.588 221.84a52.86 52.86 0 0 1 11.309-14.3c.308-.274-.142-.73-.447-.457-4.62 4.126-8.43 8.95-11.407 14.43-.198.363.348.7.546.326m1.948 24.075l14.364-13.375c.297-.276-.142-.73-.438-.454L1119.1 245.46c-.298.277.14.73.438.454m1.024 1.004a103.45 103.45 0 0 1 14.284-10.312c.356-.213.032-.772-.325-.558a104.42 104.42 0 0 0-14.414 10.412c-.316.27.143.727.456.457m-61.187 2.303c-.55 2.52-.498 5.1.157 7.567.1.376.552.214.452-.167-.63-2.38-.686-4.8-.158-7.234.084-.387-.367-.55-.45-.166m107.946-2.915a39.38 39.38 0 0 1-.318 9.294c-.06.4.458.574.52.17a40.05 40.05 0 0 0 .337-9.465c-.033-.405-.573-.4-.54 0M290 348.3c2.098 35.103 3.396 70.215 3.43 105.398 0 .402.57.402.57 0-.033-35.183-1.332-70.295-3.43-105.398-.023-.4-.593-.402-.57 0"/><path d="M290.303 348.03c14.523-.697 29.054-.2 43.57.492l22.077 1.048c7.868.33 15.86.08 23.657 1.424.395.068.566-.604.166-.673-7.315-1.26-14.762-1.084-22.144-1.38l-22.05-1.037c-15.082-.72-30.183-1.297-45.275-.572-.403.018-.405.716 0 .697"/><path d="M294.003 327.303l2.35 20.395c.047.4.693.406.646 0l-2.35-20.395c-.048-.4-.694-.406-.646 0m.297-.63c4.13.046 8.256.1 12.38-.106.4-.02.413-.585 0-.566-4.125.195-8.253.152-12.38.107-.413-.005-.413.56 0 .565"/><path d="M306.55 326.3l-.55 20.4c-.012.402.438.4.45 0l.55-20.4c.012-.4-.438-.4-.45 0m-17.55-14c.367 5.92 1.598 13.2 7.622 15.666.376.154.54-.47.168-.622-5.73-2.347-6.817-9.497-7.162-15.044-.024-.412-.654-.415-.628 0m1.016-.9c1.827 5.853 7.4 9.595 9.334 15.392.128.385.763.22.633-.167-1.935-5.804-7.5-9.55-9.334-15.392-.122-.4-.755-.223-.633.167"/><path d="M299.737 326.773c1.656-6.178 1.683-12.358.084-18.546-.102-.398-.828-.23-.724.168 1.574 6.1 1.546 12.12-.087 18.2-.105.397.62.565.727.168"/><path d="M299.058 308.465c3.83 5.44 6.823 11.51 4.413 18.148-.142.387.498.554.638.17 2.46-6.774-.548-13.054-4.48-18.638-.238-.336-.812-.02-.572.322"/><path d="M303.596 325.862c1.956-2.84 4.4-5.284 7.268-7.286.324-.226.01-.748-.32-.52-2.966 2.066-5.477 4.576-7.493 7.502-.223.325.322.625.544.304"/><path d="M310.4 318.283c-.36 2.922-2.33 5.988-5.187 7.12-.357.142-.2.718.162.573 3.143-1.246 5.236-4.475 5.634-7.694.047-.378-.562-.375-.608 0m69.61 31.02v85.396c0 .402.565.403.565 0v-85.396c0-.402-.565-.403-.565 0m-79.698 30.263h63.396c.402 0 .403-.565 0-.565h-63.396c-.403 0-.403.565 0 .565m4 45.125l61.396 2.3c.403.015.402-.678 0-.692L304.302 424c-.403-.016-.402.676 0 .7"/><path d="M304.3 369.566h10.377c.415 0 .415-.566 0-.566H304.3c-.414 0-.415.566 0 .566m1.998 49h14.383c.4 0 .412-.566 0-.566h-14.383c-.4 0-.4.566 0 .566"/><path d="M309.314 450.565h8.37c.42 0 .42-.565 0-.565h-8.37c-.42 0-.42.565 0 .565M106.302 10c11.78-.6 23.3-2.732 34.48-6.394.38-.125.218-.714-.166-.588a131.31 131.31 0 0 1-34.315 6.371c-.402.02-.404.63 0 .6"/><path d="M118.382 13.993l15.398-3.326c.386-.084.223-.742-.163-.66l-15.397 3.328c-.386.083-.22.74.162.658"/></g><g transform="translate(313)"><mask id="E" class="B"><use xlink:href="#A"/></mask><path d="M.307 8.95C11.905 7.488 23.3 5.046 34.5 1.615c.38-.117.22-.722-.165-.606A202.12 202.12 0 0 1 .307 8.321c-.39.05-.395.678 0 .628" fill="#ddd" mask="url(#E)"/></g><g fill="#ddd"><path d="M323.393 14l17.384-4.363c.392-.098.226-.715-.168-.616l-17.382 4.363c-.395.098-.227.715.167.616M1011.4 44.992l21.387-4.42c.392-.08.226-.646-.165-.565l-21.387 4.42c-.392.08-.226.646.165.565M1024.404 49l13.363-3.3c.407-.1.235-.77-.17-.67l-13.364 3.312c-.407.1-.235.768.172.668m290.625 158.3l1.367 209.397c.006.402.6.403.604 0l-1.368-209.397c.001-.402-.602-.402-.603 0"/><path d="M1312.48 211.302a5050.78 5050.78 0 0 0 .695 178.395c.007.403.835.404.826 0a5059.24 5059.24 0 0 1-.695-178.395c.006-.403-.82-.403-.826 0m-284.086-164L1027 141.697c-.008.404.6.404.607 0L1029 47.303c.008-.404-.598-.404-.606 0m-1.91 93.8c-5.33 6.382-14.456 9.915-18.445 17.417-.2.36.34.68.532.32 3.955-7.44 13.048-10.94 18.348-17.288.26-.3-.176-.76-.435-.45"/><path d="M1027.137 141.612c6.7 4.875 13.858 8.893 19.337 15.284.266.31.708-.144.444-.453-5.517-6.438-12.722-10.472-19.463-15.384-.33-.24-.644.315-.318.552"/><path d="M1008.385 158.988c12.555-3.467 25.404-4.23 38.227-2.248.4.06.558-.6.164-.65a91.37 91.37 0 0 0-38.555 2.249c-.386.106-.223.755.164.65m3-4.994a178.01 178.01 0 0 1 26.316-2.408c.397-.006.398-.594 0-.587-8.894.153-17.72.965-26.48 2.43-.4.065-.224.63.163.566"/><path d="M1020.143 157.428c5.176 3.74 11.95 3.36 16.752-.875.312-.275-.138-.744-.45-.47-4.6 4.055-11.047 4.336-15.983.77-.338-.244-.655.333-.32.575M861.3 335.565h313.397c.402 0 .402-.565 0-.565H861.3c-.4 0-.402.565 0 .565"/><path d="M899 319.31v16.378c0 .414.566.415.566 0V319.31c0-.414-.566-.414-.566 0"/><path d="M899.307 319.565h14.387c.408 0 .4-.565 0-.565h-14.387c-.4 0-.4.565 0 .565m13.745.748a169 169 0 0 0 .198 13.375c.024.414.6.417.567 0-.244-4.457-.3-8.9-.2-13.375.01-.417-.554-.417-.565 0"/><path d="M913.634 324.07c.075-.2.568-.668.786-.4.083.106.06.5.064.65.008.42-.05.845-.165 1.247-.223.787-.65 1.436-1.23 1.954-.26.23.1.63.366.403 1.1-.98 1.698-2.536 1.512-4.1-.067-.562-.154-.85-.72-.842-.54.01-.92.402-1.112.918-.126.338.374.486.5.15m-13.405 10.374a49.61 49.61 0 0 0 13.542.176c.402-.05.232-.488-.17-.44-4.43.547-8.802.487-13.202-.175-.4-.06-.57.378-.17.438m4.343-17.84c-.15-.997.6-1.675.973-2.463.24-.525.38-1.106.433-1.693.105-1.2-.2-2.327-.807-3.305-.207-.332-.696-.015-.487.32.896 1.442.985 3.195.2 4.714-.473.903-1 1.502-.847 2.595.062.402.604.23.543-.168m3.11.17l1.305-4.374c.12-.4-.548-.57-.667-.172l-1.304 4.375c-.12.4.548.57.666.17m-42.378 21.794h322.396c.403 0 .403-.566 0-.566H865.302c-.403 0-.403.566 0 .566m5.698 3.736v129.395c0 .403.565.404.565 0V342.302c0-.403-.565-.403-.565 0"/></g><g fill="#e9f9ff"><path d="M123 84s-11.584 10.593-10.47 13.682 4.233 5.518 3.565 6.18-1.114 4.194-1.114 4.194L78 116s21.944-21.407 45-32m206 58s-4.847 8.112-5.618 10.14 2.865 3.268 1.652 4.846-5.84 5.408-5.728 5.97S303 166 303 166s11.677-12.507 26-24"/><path d="M1.34 539.065s-6.244-341.93 8.233-395.07S56.22 119.84 81.958 74.754s73.994-22.544 94.905 69.242 41.952 75.553 54.756 94.94 40.15 91.852 49.802 98.294 94.905-1.61 110.99 17.713 36.998 107.89 36.998 107.89l-135.253-8.42-34.56-1.02L1.34 539.065z" style="mix-blend-mode:multiply"/></g><path d="M184.266 705.962a4843.05 4843.05 0 0 1 153.116-125.23l44.583-34.574c.115-.088-.078-.217-.196-.127-53.232 40.812-105.212 82.33-155.87 124.54l-41.872 35.298c-.107.092.13.184.24.092m295.986 18.993C517.043 674.53 550.5 623.06 580.44 570.7c8.464-14.8 16.64-29.67 24.55-44.6.057-.1-.208-.158-.267-.047-27.966 52.8-59.413 104.8-94.3 155.788a1710.17 1710.17 0 0 1-30.41 43.01c-.076.105.162.196.238.092" fill="#ccc"/><g transform="translate(721 512)"><mask id="F" class="B"><use xlink:href="#B"/></mask><path d="M.05.306c16.216 58.278 30.618 116.775 43.157 175.45l10.457 51.16c.023.114.298.115.275 0-11.555-59.174-24.963-118.187-40.253-177L.315.257C.283.143.018.19.05.306" fill="#ccc" mask="url(#F)"/></g><path d="M887.018 539.137l145.726 172.82c.086.102.323.01.237-.092l-145.725-172.82c-.086-.102-.324-.01-.238.092m174.014-12.997c67.295 53.12 136.317 105.293 207.034 156.463l60.676 43.365c.12.085.345-.02.222-.107-71.66-50.6-141.67-102.205-209.943-154.784l-57.767-45.044c-.113-.1-.337.017-.222.107" fill="#ccc"/><path d="M855.482 590.354c-35.186-2.544-70.947-1.2-106.08.53-54.503 2.672-110.8-2.736-164.6 5.506-3.954.605-22.74 1.295-43.24 3.034-11.88-5.322-30.436-4.656-37.858-4.822-28.674-.638-56.923-4.534-85.63-6.197-79.186-4.588-217.353 1.705-253.73 24.067-20.532 12.623 20.218 23.28 87.8 27.396 32.238 1.964 64.94 1.063 97.1-.722 49.894-2.77 101.424 2.536 150.686-5.803 2.692-.456 8.83-1.12 15.983-2.285 25.825 3.824 57.808 3.9 64.845 4.065 31.327.695 62.197 4.647 93.56 6.368 86.52 4.744 222.2-1.32 261.896-23.6 22.407-12.583-61.204-26.115-80.734-27.527m252.992 66c-35.187-2.544-70.947-1.2-106.08.53-54.503 2.672-110.8-2.736-164.6 5.506-3.954.605-22.74 1.295-43.24 3.034-11.88-5.322-30.436-4.656-37.86-4.822-28.673-.638-56.923-4.534-85.628-6.197-79.187-4.588-217.353 1.706-253.73 24.067-20.532 12.623 20.218 23.28 87.8 27.396 32.24 1.964 64.94 1.063 97.102-.722 49.894-2.77 101.424 2.536 150.686-5.803 2.692-.456 8.83-1.12 15.982-2.285 25.826 3.824 57.8 3.9 64.846 4.066 31.327.694 62.197 4.646 93.56 6.366 86.52 4.744 222.2-1.32 261.896-23.6 22.407-12.583-61.204-26.115-80.734-27.527" fill="#ebf5ff"/><path d="M380.19 292l6.81-14.35-8.473-4.02c-3.245-1.54-7.125-.158-8.664 3.088l-1.233 2.597c-1.54 3.246-.158 7.125 3.088 8.665l8.473 4.02z" class="F"/><path d="M373.518 287c-2.364-1.77-3.705-4.835-3.497-8l.86.07c-.185 2.823 1.01 5.557 3.12 7.134l-.482.797z" class="B"/><path d="M407.894 297.036s.947 8.77-2.83 8.96-11.514-5.244-11.514-5.244-.946-6.238-.357-7.268 8.093-.258 8.262.858-3.052 2.235-3.052 2.235l9.49.46z" fill="#fcb69d"/><path d="M344.11 284c2.526 0 4.855 1.362 6.084 3.562l30.748 49.347s4.763-9.293 9.54-26.208L408 322.164c-1.267 11.502-4.632 27.293-13.182 42.855-4.366 7.946-15.246 9.372-21.622 2.915l-30.8-31.2L328 284h16.11z" class="G"/><path d="M333.993 605.765l-1.81-.47c-4.942-1.194-7.73-6.485-5.987-11.294H310.85l-.523 8.55-.328 4.272c.748.714 1.663 1.487 2.55 1.954 1.973 1.036 17.422 2.135 19.944 0 1.223-1.037 1.563-2.085 1.498-3.012" class="D"/><path d="M343.625 608.024c-3.654-1.534-9.513-3.024-9.513-3.024-3.467 2.694-7.86 4.067-12.334 3.89-4.09-.16-7.945-.628-8.86-1.08-.877-.435-1.782-1.157-2.52-1.822l-.386 4.748c-.143 1.76 1.322 3.265 3.18 3.265h23.915c10.728-.08 10.174-4.44 6.52-5.976" class="C"/><path d="M306.993 611.765l-1.81-.47c-4.943-1.194-7.73-6.485-5.987-11.294H283.85l-.523 8.552-.328 4.272c.748.714 1.662 1.487 2.55 1.953 1.974 1.037 17.422 2.136 19.945 0 1.223-1.036 1.563-2.085 1.498-3.01" class="D"/><path d="M316.625 615.024c-3.654-1.534-9.513-3.024-9.513-3.024-3.467 2.694-7.86 4.067-12.334 3.89-4.09-.16-7.945-.628-8.86-1.083-.877-.434-1.782-1.156-2.52-1.82l-.386 4.748c-.143 1.76 1.322 3.265 3.18 3.265h23.915c10.728-.08 10.174-4.44 6.52-5.976" class="C"/><path d="M289.425 284h48.788c2.9 0 5.475 1.81 6.48 4.54L355 316.51l-10.138 24.847-2.957 32.626L277.08 375l-1.08-77.215c-.14-7.572 5.91-13.785 13.422-13.785" class="G"/><path d="M335.408 284l.586 9.293c.163 2.68-2.816 4.313-4.887 2.677l-5.838-4.6c-1.96-1.547-4.62-1.755-6.784-.53l-11.978 6.78c-2.027 1.148-4.506-.362-4.506-2.743V284m9.06 295.005l5.266-148.85 6.386 46.682-11.652 102.166zm-34.062-204L282.47 609h25.678l2-4.115h20.42L357 482.518 341.922 374 277 375.015z" class="C"/><path d="M294.814 411l10.172 5.04s.57 2.784-5.46 2.022c-2.463-.31 2.862 11.673 3.753 12.895s-.712 3.466-3.864-.24c0 0 1.106 3.65-.248 4.042-1.147.334-4.124-3.78-4.124-3.78s1.105 4.51-.532 3.978-3.18-3.5-3.18-3.5.274 4.236-2.193 2.376c-2.484-1.872-6.386-11.892-8.14-19.68" class="D"/><path d="M275.2 295.5c1.16-6.65 7.024-11.5 13.887-11.5h1.914l6.99 22.852-12.328 50.898 11.622 39.63-20.327 7.62-13.412-45.078c-.63-2.1-.725-4.337-.28-6.5L275.21 295.5zM299 409.722L280.088 420 276 405.7l19.7-7.7z" class="G"/><path d="M346.865 336l-.865-.348 7.996-19.055-5.41-14.278.877-.32 5.54 14.615z" class="E"/><path d="M407.952 306.753c.094 2.67.127 8.118-.66 15.247L390 310.722c.93-3.282 1.857-6.87 2.753-10.722l15.2 6.753z" class="G"/><path d="M414 299.49L393.74 285l-3.74 7.407L412.13 304z" class="C"/><path d="M395.807 288.047c1.196-1.86 3.9-2.566 6.375-1.643 3.73 1.39 9.425 4.286 8.766 8.868-1.036 7.193-4.518 8.498-5.03 7.373s-.715-2.876-.715-2.876-2.027 1.543-3.08 1.272-1.05-3.23-1.05-3.23-1.65 1.155-2.806.847-1.236-2.97-1.236-2.97-.892 1.865-2.366 1.163c-1.07-.51-.965-5.53 1.14-8.802" class="D"/><path d="M388.92 299l7.08-14.92-14.92-7.08-7.08 14.92z" class="C"/><path d="M390.92 294l7.08-14.92-14.92-7.08-7.08 14.92z" class="K"/><path d="M390.62 293L378 286.858l.38-.858 12.62 6.14z" class="B"/><path d="M398.033 296l-1.033-.17c.336-1.922 1.5-3.607 2.546-4.8a12.3 12.3 0 0 1 1.454-.033c-1.06 1.055-2.602 2.897-2.967 4.993m2.967 2.297l.778.703c1.526-1.9 2.045-4.496 2.222-6.202l-.965-.798c-.1 1.46-.47 4.36-2.035 6.297m5 1.045l.797.658c1.46-1.688 2.004-3.97 2.203-5.574a9.62 9.62 0 0 0-1.004-.426c-.155 1.474-.618 3.75-1.996 5.342" fill="#fcb69d"/><path d="M311.942 579l-.942-.032L317.058 413l.942.032z" class="E"/><path d="M351.053 486l-.053-.947c2.654-.132 2.976-1.974 3-2.053l1 .13c-.134.932-1.132 2.732-3.947 2.87m-42-3l-.053-.948c2.654-.13 2.976-1.973 3-2.052l1 .13c-.134.932-1.13 2.732-3.947 2.87" class="B"/><path d="M312.388 414l-.388-.786L324.612 408l.388.786zm-12.265-4L285 358.112 297.233 307l.9.2-12.177 50.878L301 409.748l-.877.252z" class="E"/><path d="M341.75 247.6s3.375 17.007 8.25 24.943c0 0-7.625 5.858-20.375 4.157L323 244l18.75 3.6z" class="C"/><path d="M309.2 285.996l-.19-34.993c-.046-8.606 6.7-15.7 15.2-15.993 8.01-.286 14.858 5.775 15.624 13.83l1.15 18.227c.248 3.92-2.714 7.293-6.6 7.515l-3.592.206.312 10.827c.18 6.254-4.808 11.415-11.008 11.386-6-.028-10.876-4.936-10.9-11.004" class="D"/><path d="M335 261.667l-3.9.333-.1-1.162 2.84-.244-.296-7.546 1.117-.05zm-2.814 5.3c-3.2.214-5.08-1.148-5.186-1.226l.746-.75c.12.086 3 2.12 7.757.157l.497.9c-1.418.586-2.696.855-3.814.93m-4.2-13.01l.027.02c-.002-.013-.013-.022-.027-.02m.143 1.013a1 1 0 0 1-.281-1.98 1 1 0 1 1 .281 1.98m8.858-1.013l.026.02c-.002-.013-.012-.02-.026-.02m.144 1.013a1 1 0 1 1 .849-1.131 1 1 0 0 1-.849 1.131" class="F"/><path fill="#dd9a83" d="M330.754 274H324l7 9z"/><path d="M328.16 249.437H345s-1.49-23.787-26.37-20.035c-27.652 4.17-17.554 42.223-20.63 48.6h22.55l-3.587-16.067s-4.356-.5-4.1-4.08 4.516-2.87 6.47-.064l-.32-8.352h6.647c1.85-1.802 2.278-4.51 2.278-4.51s.706 2.02.223 4.51" class="C"/><path d="M316.978 260.58a1.12 1.12 0 0 0 .443.444c.773.422.773 1.532 0 1.954a1.12 1.12 0 0 0-.443.444c-.423.773-1.533.773-1.955 0-.103-.187-.256-.34-.444-.444-.772-.422-.772-1.532 0-1.954.188-.103.34-.257.444-.444.422-.772 1.532-.772 1.955 0" fill="#f9d671"/><path d="M470 685h5.702L506 482h-14.182zm519.297 0H995l-21.82-203H959z" class="I"/><path d="M654.882 667.04l-.02 1.4c-.02 1.372-.746 2.63-1.913 3.313l-13.855 8.104c-2.5 1.462-4.056 4.157-4.096 7.1-.01.75.58 1.365 1.316 1.376l44.808.674c2.053.03 3.762-1.598 3.865-3.685l1.005-20.235c.117-2.362-1.85-4.28-4.16-4.063l-23.49 2.212c-1.943.183-3.437 1.827-3.463 3.812" class="E"/><path fill="#0e192d" d="M684.167 551.55L688 667l-43.737-2.524L635 545"/><path d="M690 676l-.032-12.275L644 661l1.16 14.138z" class="G"/><path d="M578.882 667.04l-.02 1.4c-.02 1.372-.746 2.63-1.913 3.313l-13.854 8.104c-2.5 1.462-4.057 4.157-4.097 7.1-.01.75.58 1.365 1.316 1.376l44.808.674c2.053.03 3.762-1.598 3.865-3.685l1.005-20.235c.117-2.362-1.85-4.28-4.16-4.063l-23.49 2.212c-1.943.183-3.437 1.827-3.463 3.812" class="E"/><path d="M737.61 492s5.002 39.805-20.85 55.946c-29.326 18.3-91.535 11.93-91.535 11.93L608.2 673.492 572 674l1.046-124.923a19.33 19.33 0 0 1 14.216-18.48l51.6-14.153" class="C"/><path d="M613 676l-.032-12.275L567 661l1.16 14.138z" class="G"/><path d="M447 483h572v-11H447z" class="H"/><path d="M751 385l16.822 87H774l-16.822-87z" class="J"/><path d="M863.865 387.36c-.26-1.37-1.46-2.36-2.86-2.36H757l16.585 87H880l-16.135-84.64z" class="I"/><path d="M768.26 467H892.46l2.54 5H767" class="J"/><path d="M872 464l-14.697-74H763l14.697 74z" class="B"/><path fill="#bedefc" d="M852.788 395H770l1.212 6H854z"/><g class="B"><path d="M775.97 398c.136.553-.188 1-.723 1s-1.08-.447-1.215-1 .187-1 .72-1 1.08.447 1.216 1"/><use xlink:href="#C"/><use xlink:href="#C" x="38" y="-10"/><use xlink:href="#C" x="4"/></g><path fill="#cde0ff" d="M801 459h-17.668L771 401h17.668z"/><path d="M777.462 410H787l-.462-2H777zm10.076 4H778l.463 2H788zm1 6H779l.462 2H789zm2 7H781l.462 2H791zm1 6H782l.463 2H792zm2 6H784l.462 2H794z" fill="#c3d3ff"/><g class="H"><path d="M769 467.918h72V467h-72z"/><path d="M772.033 468L757 389.194l.967-.194L773 467.806zm-5.053 5L750 385.192l1.022-.192L768 472.8zM757 384.918h105V384H757z"/></g><path fill="#b68ced" d="M987.538 473h-19.076L966 438h24z"/><path d="M965 448h26l-.926 14h-24.07zm0-7h27v-4h-27z" class="H"/><g class="F"><path d="M643.728 331.376c3.582 1.54.768 11.54.768 11.54s1.28-3.6 4.605-3.333 1.28 5.64-1.535 6.667c0 0 .517 16.6 23.435 11.915l-1.452-4.9c-2.96-9.93-7.275-24.014-9.6-29.775-3.748-9.328-19.813-6.32-26.478-9.04-17.72-7.237-22.957 14.936-1.065 15.932 1.122.05 1.37.035 1.37.035s6.364-.578 9.944.96m-11.232 4.55a3.58 3.58 0 0 0-3.551 3.209c-.098.95.18 1.88.782 2.62a3.54 3.54 0 0 0 2.406 1.298 3.55 3.55 0 0 0 3.919-3.188 3.58 3.58 0 0 0-3.191-3.919c-.12-.013-.244-.02-.366-.02M632.5 344a4.95 4.95 0 0 1-.47-.025c-1.195-.12-2.27-.702-3.03-1.636s-1.1-2.104-.987-3.3c.253-2.468 2.455-4.274 4.935-4.017 2.468.253 4.27 2.468 4.016 4.936a4.47 4.47 0 0 1-1.635 3.029c-.8.66-1.8 1-2.83 1"/><path d="M632.998 336.982c-1.55 0-2.84 1.163-2.997 2.707a3 3 0 0 0 .661 2.211 2.99 2.99 0 0 0 2.03 1.097 2.98 2.98 0 0 0 2.212-.662c.625-.508 1.012-1.227 1.095-2.028s-.153-1.585-.662-2.21a2.99 2.99 0 0 0-2.028-1.096c-.104-.012-.208-.017-.31-.017m.012 8.018c-.174 0-.348-.008-.522-.027-1.327-.136-2.522-.783-3.366-1.82s-1.23-2.336-1.095-3.666.782-2.53 1.82-3.372 2.348-1.214 3.664-1.092c1.327.138 2.52.783 3.366 1.82a4.97 4.97 0 0 1-.72 7.033c-.903.735-1.99 1.124-3.147 1.124"/></g><path d="M646.812 345.946c2.82-1.027 4.872-6.414 1.54-6.67s-4.615 3.335-4.615 3.335 2.82-10.004-.77-11.544-9.967-.96-9.967-.96l.26 19.867a5.58 5.58 0 0 0 5.629 5.508l-.182 13.433 6.756 7c2.764 2.87 6.666 4.35 10.635 4.034a13.31 13.31 0 0 0 10.563-6.763l5.34-9.52-1.702-5.808c-22.968 4.696-23.486-11.92-23.486-11.92" class="D"/><path fill="#eda68e" d="M639.08 356l-.08 6 6-6z"/><g class="F"><path d="M629.017 339.872l-.017-.794 17-.078-.696.825z"/><path d="M628.034 341l-.034-1.907 19-.093-1.51 1.944z"/></g><path d="M498 385l16.822 87H521l-16.822-87z" class="J"/><path d="M610.865 387.36c-.26-1.37-1.46-2.36-2.86-2.36H504l16.584 87H627l-16.135-84.64z" class="I"/><path d="M515.26 467h124.2l2.54 5H514" class="J"/><path d="M619 464l-14.698-74H510l14.697 74z" class="B"/><path fill="#bedefc" d="M599.79 395H517l1.21 6H601z"/><g class="B"><use xlink:href="#D"/><use xlink:href="#D" x="3"/><use xlink:href="#D" x="41" y="-10"/><use xlink:href="#D" x="7"/></g><path fill="#cde0ff" d="M548 459h-17.668L518 401h17.668z"/><path d="M524.463 410H534l-.463-2H524zm10.074 4H525l.462 2H535zm1 6H526l.463 2H536zm2 7H528l.463 2H538zm1 6H529l.462 2H539zm2 6H531l.463 2H541z" fill="#c3d3ff"/><g class="H"><path d="M516 467.918h72V467h-72z"/><path d="M519.034 468L504 389.194l.967-.194L520 467.806z"/></g><path d="M656.247 368.45c8.354-1.236 12.678-4.842 14.753-7.39l-.487-.06-30.212 5.867s-.845.284-2.3.835c3.045.792 9.65 2.02 18.247.748" class="D"/><path d="M759.472 452.336l-28.234-64.21c-5.666-12.885-17.64-21.864-31.57-23.675L671.48 361c-2.095 2.614-6.46 6.312-14.9 7.58-8.676 1.304-15.343.044-18.415-.767-8.05 3.09-34.706 14.44-42.23 31.742-6.706 15.42-12.382 43.66-14.71 56.277-.744 4.03.304 8.173 2.865 11.37a14.05 14.05 0 0 0 10.962 5.268h34.006l7.596 49.767s15.163 13.848 45.714 15.508c50.366 2.737 59.468-17.333 59.468-17.333l-6.906-48h9.44c9.53 0 17.564-8.68 15.208-19.717-.025-.12-.064-.236-.113-.347" fill="#f7734a"/><path d="M628.04 472L617 415.198l.962-.198L629 471.802z" class="B"/><path d="M734.96 472L724 406.162l1.04-.162L736 471.838z" class="E"/><path d="M513.98 473L497 385.192l1.02-.192L515 472.8zM504 384.918h105V384H504z" class="H"/><g class="C"><path d="M879.252 554.08L892 676l-38.077-.845L834 548"/><path d="M933.685 492s13.097 42.995-12.773 59.156c-29.347 18.332-92.738 8.8-92.738 8.8L816.216 676H780l3.89-122.323c.315-9.897 6.555-18.63 15.814-22.124l59.344-22.41"/></g><path d="M853.593 675.2l-.032-.2-8.642 5.4c-2.458 1.534-3.946 4.288-3.918 7.245.008.756.608 1.362 1.342 1.356l44.662-.407c2.047-.018 3.712-1.703 3.767-3.8l.228-8.72-37.407-.854zm-74.236-.2l-10.44 5.322c-2.456 1.548-3.944 4.327-3.916 7.3.008.764.608 1.375 1.34 1.368l44.663-.4c2.047-.018 3.713-1.717 3.768-3.843l.227-8.798-35.643-.95z" class="K"/><g fill="#bf4f49"><path d="M838.46 346l-2.456 10.404c-.158 1.033 3.996.4 3.996.4m23-8.36s.26-3.384 2.892-4.327 5.983 4.15-1.294 6.885"/><path d="M784 396.88s-2.97-14.415-1.818-19.296-3.864-1.717-4 3.482-1.615 1.85-2 .234-5.14-12.316-5.903-13.535-3.08-.953-2.83.6c0 0-1.05-1.37-2.426-.97s-.446 3.107-.446 3.107-1.974-.95-2.297.816.252 2.623.252 2.623-1.808.23-1.5 2.025.737 10.022 2.95 14.676c3.804 8.003 6.75 9.77 9.256 16.35M877 371.033l-.443-.054-4.228.834-5.446-24.386 1.276-5.445-5.4-12.98-26.77 4.152 3.158 24.723c.803 6.273 6.664 10.6 12.88 9.526l1.44 8.13-4.487.886s-.77.263-2.1.773c1.494.395 3.93.903 7.076 1.1l.1.507c1.057 5.965 7.716 9.053 12.936 5.998l1.796-1.05c3.188-1.865 4.826-5.538 4.137-9.154 1.9-1.2 3.2-2.482 4.072-3.567"/></g><path d="M957.59 454.747l-25.626-58.218a36.35 36.35 0 0 0-28.581-21.41l-25.52-3.12c-1.898 2.365-5.848 5.708-13.48 6.854-7.855 1.18-13.89.04-16.672-.695a120.15 120.15 0 0 0-8.892 3.857c-9.106 4.387-15.952 12.41-18.972 22.063l-8.678 27.744-26.684-38.537L767 401.73l25.832 57.143c3.88 8.583 12.42 14.098 21.83 14.098h.998a23.95 23.95 0 0 0 18.33-8.54l3.944-4.7 11.42 56.833s9.202 5.988 45.548 8.29c23.815 1.51 46.007-10.134 46.007-10.134l-5.597-42h8.545c8.676 0 15.98-7.936 13.732-17.994" class="K"/><path d="M839.97 472L831 422.175l1.03-.175 8.97 49.824z" class="B"/><path d="M934.958 472L925 412.163l1.042-.163L936 471.837zm-71.816-149.735c-7.23-.887-13.782 4.743-18.046 2.15-2.397-1.458-1.985-5.414-1.985-5.414l-6.732 6.186-1.805-3.9c-3.9 3.497-7.825 14.845-.307 18.838 3.067 1.63 7.67.64 11.792-.196.406 2.174 1.48 4.46 4.173 4.807v5.508l2.78-.46s-.23-5.048 3.013-5.736 2.55 5.965-.464 7.572c0 0 4.552 13.702 12.052 9.637 9.732-5.277 8.418-37.4-4.472-38.98" class="E"/><path d="M840.997 348.978l.025.02c-.002-.013-.012-.022-.025-.02m.133 1.014a1 1 0 0 1-1.122-.86 1 1 0 1 1 1.983-.262 1 1 0 0 1-.861 1.122" class="F"/><path d="M541 693h5.822L568 554h-11.75zm407.178 0H954l-15.25-139H927z" class="I"/><path d="M467 564h560v-11H467z" class="H"/><path d="M780 675.34l35.666.66L817 664.093 780.437 662zm74.12-1.1l18.088.393L892 675l-1.433-13.4L852 661z" class="C"/><path d="M194.034 581.32l47.735-.32s1.046 26.034-1.308 31.5-3.002 6.836-9.736 9.276-37.887-15.407-36.7-40.457" class="B"/><path d="M194.24 544.97s-12.948 1.07-20.5-9.642-10.52-6.697-14.027-12.6-4.855-19.286 3.776-25.98 21.85-.268 24.277 9.375 4.316 13.392 7.285 19.284 5.124 13.393-.8 19.554m44.16 13.31s-3.2-8.026 4.015-17.122c2.408-3.477.267-9.63 3.745-16.32s14.182-14.446 25.956-10.97 12.844 24.88-2.943 32.64-11.995 10.554-16.324 13.377c-6.153 4.013-13.914 3.477-16.857 2.14l2.4-3.745z" fill="#35c28c"/><g class="C"><path d="M192.252 580.4c-.3 8.498-.6 17.405.802 25.82 1.082 6.496 4.127 12.895 10.33 15.748.468.214.876-.484.406-.7-7.014-3.223-9.562-10.824-10.327-18.045-.8-7.54-.677-15.258-.408-22.824.018-.52-.785-.52-.804 0m2.135.34h45.228c.514 0 .515-.728 0-.728h-45.228c-.515 0-.515.728 0 .728m46.736 1.665l-.023 22.904c-.087 6.862-2.926 15.05-10.716 15.885-.508.055-.513.87 0 .815 6.032-.648 10.15-6.06 11.164-11.87.723-4.145.363-8.53.365-12.72l.012-15.014c0-.524-.803-.524-.803 0m-50.734 40.337h70.227c.515 0 .516-.73 0-.73h-70.227c-.516 0-.516.73 0 .73m7-36h39.224c.516 0 .517-.73 0-.73h-39.224c-.517 0-.518.73 0 .73m-8.328-32.137a523.7 523.7 0 0 0 16.173 25.226c.3.423 1 .025.698-.403-5.633-8.256-11.025-16.666-16.173-25.225-.264-.44-.964-.04-.698.402"/><path d="M188.616 554l-36.233 1.317c-.51.018-.513.7 0 .682l36.233-1.317c.51-.02.514-.7 0-.682"/><path d="M152.033 555.516c3.115 7.355 10.08 13.083 18.508 12.433 8.2-.633 13.735-7.4 18.38-13.38.315-.406-.384-.803-.696-.402-4.162 5.35-9 11.43-16.107 12.775-8.55 1.618-16.133-4.142-19.308-11.638-.197-.465-.977-.26-.777.212m19.012-53.906c13.15 27.068 27.567 53.498 43.204 79.2.268.44.96.037.7-.405-15.637-25.7-30.055-52.13-43.204-79.2-.226-.464-.916-.057-.7.406"/><path d="M194.34 542.732c-4.688.386-9.8.34-13.863-2.306-3.522-2.288-5.492-6.092-8.12-9.224-2.494-2.975-5.763-4.598-8.845-6.864-4.47-3.287-5.558-8.24-5.588-13.493-.025-4.655.865-9.7 4.333-13.136 3.33-3.3 8.4-4.5 12.947-3.63 4.388.837 8.2 3.76 10.65 7.368 2.807 4.115 3.166 8.965 4.67 13.566 2.786 8.528 12.646 19.645 4.8 28.292-.35.384.224.952.574.567 7.03-7.738.427-17.753-3.094-25.367-2.4-5.193-2.58-11.15-5.418-16.14-2.08-3.658-5.367-6.734-9.344-8.284-8.306-3.238-17.613 1.063-20.055 9.566-1.307 4.55-1.343 10.125.103 14.646 1.483 4.64 5.143 6.782 9.014 9.35 4.95 3.283 7.126 8.734 11.572 12.446 4.362 3.64 10.238 3.895 15.67 3.447.517-.043.522-.844 0-.8m23.438 37.864a2271.61 2271.61 0 0 1 4.215-96.222c.033-.52-.75-.516-.784 0-2.085 32.04-3.5 64.12-4.215 96.222-.012.52.772.52.784 0m3.932-110.264c-6.727-1.4-13.524 1.687-17.748 7.1-4.764 6.094-5.703 14.44-4.483 21.923.8 4.97 2.862 9.683 3.175 14.744.3 4.68-.765 9.374.14 14.024 1.482 7.63 7.187 13.483 13.185 17.8.416.3.8-.4.4-.696-5.93-4.277-11.602-10.132-12.9-17.726-.73-4.28.17-8.602-.003-12.903-.153-3.778-1.296-7.37-2.247-10.995-1.993-7.584-2.267-15.996 1.616-23.04 3.66-6.64 11.17-11 18.66-9.453.495.103.708-.674.2-.777"/><path d="M221.6 471.778c6.57.992 11.7 5.683 14.45 11.622 3.203 6.947 2.5 14.947.176 22.045-2.2 6.72-6.785 12.603-8.046 19.605-1.2 6.6-.456 15.995-7.918 19.144-.467.196-.26.972.214.773 6.37-2.7 7.303-9.885 7.986-15.975.583-5.193 2.132-9.345 4.514-13.964 1.856-3.6 3.483-7.3 4.58-11.218 1.986-7.07 2.2-14.82-1.153-21.5-2.898-5.787-8.103-10.315-14.593-11.294-.503-.076-.72.697-.212.773m-.934 108.088L269.9 521.7c.33-.4-.23-.96-.564-.566L220.1 579.3c-.33.4.23.96.564.566"/><path d="M238.926 557.805c-2.34-5.35-.766-10.1 2.512-14.575 2.622-3.58 2.706-7.004 3.17-11.256 1.013-9.268 8.66-16.65 17.705-18.655 5.12-1.136 10.837-.443 14.628 3.438 3.114 3.188 4.534 7.824 4.202 12.198-.782 10.362-9.637 15.84-17.643 20.764-1.9 1.168-3.764 2.43-5.37 3.978-1.935 1.863-3.356 4.154-5.624 5.674-4.348 2.912-9.943 2.996-14.995 2.73-.52-.028-.52.775 0 .802 4.6.242 9.485.172 13.703-1.868 2.22-1.073 3.84-2.654 5.424-4.498 2.12-2.473 4.485-4.4 7.272-6.125 8.2-5.05 16.974-10.568 18.008-21.08.907-9.242-5.693-17.412-15.28-17.33-8.97.076-17.922 5.958-21.4 14.145-1.045 2.46-1.388 4.974-1.58 7.613-.28 3.863-1.114 6.6-3.417 9.73-3.285 4.472-4.282 9.535-2.014 14.723.208.47.906.064.7-.405m-10.32 22.142c7.4-3.854 14.5-8.254 21.22-13.185.412-.302.01-.995-.408-.7a163.7 163.7 0 0 1-21.217 13.184c-.46.24-.053.93.406.7"/><path d="M249.1 566.69c4.932 5.817 12.487 11.886 20.637 8.167 3.01-1.374 4.93-1.024 7.992-.15 1.7.485 3.357.813 5.092.293 3.85-1.155 5.678-5.002 7.142-8.313.205-.462-.493-.864-.7-.4-1.753 3.968-4.333 8.96-9.667 8.083-2.93-.483-5.386-2.12-8.4-1.073-2.076.72-3.566 1.748-5.88 1.872-2.323.126-4.642-.44-6.722-1.427-3.615-1.715-6.398-4.637-8.92-7.613-.333-.392-.904.17-.574.56"/><path d="M250.387 567.728h38.226c.516 0 .517-.728 0-.728h-38.226c-.516 0-.516.728 0 .728"/></g><path d="M845.67 362c-1.097 0-2.082-.334-2.67-.656l.634-.85c.103.057 2.576 1.36 4.484-.494l.882.667c-1.03 1.002-2.236 1.333-3.33 1.333" class="F"/><path d="M495.098 191.003l-120.776 9.4c-.512.04-.94.466-.955.953L372 247.27c-.015.488.4.85.902.8l24.733-1.926c.4-.03.748.184.863.534l3.233 9.774c.255.775 1.44.69 1.757-.124l4.018-10.363a1.06 1.06 0 0 1 .894-.659l85.277-6.637c.513-.04.94-.466.955-.953L496 191.812c.015-.486-.39-.85-.902-.81" fill="#f9d671"/><path d="M467.144 207.52l-73.334 5.478c-.46.035-.823-.277-.8-.696s.396-.786.856-.82l73.334-5.478c.46-.034.823.277.8.696s-.396.787-.856.82m0 10l-73.334 5.478c-.46.035-.823-.277-.8-.696s.396-.786.857-.82l73.334-5.478c.46-.034.822.277.808.696s-.395.787-.856.82m-24.01 11.94l-49.332 3.537c-.46.032-.823-.267-.8-.67s.397-.756.858-.8L443.2 228c.46-.032.823.267.8.67s-.397.756-.858.8" class="B"/></g></svg>